<?xml version="1.0" encoding="UTF-8"?>
<!DOCTYPE svg PUBLIC "-//W3C//DTD SVG 1.1//EN" "http://www.w3.org/Graphics/SVG/1.1/DTD/svg11.dtd">
<svg xmlns="http://www.w3.org/2000/svg" version="1.1" width="1014px" height="251px" style="shape-rendering:geometricPrecision; text-rendering:geometricPrecision; image-rendering:optimizeQuality; fill-rule:evenodd; clip-rule:evenodd" xmlns:xlink="http://www.w3.org/1999/xlink">
<g><path style="opacity:1" fill="#fcfcfc" d="M -0.5,-0.5 C 337.5,-0.5 675.5,-0.5 1013.5,-0.5C 1013.5,83.1667 1013.5,166.833 1013.5,250.5C 675.5,250.5 337.5,250.5 -0.5,250.5C -0.5,166.833 -0.5,83.1667 -0.5,-0.5 Z"/></g>
<g><path style="opacity:1" fill="#181818" d="M 350.5,19.5 C 356.161,32.6913 352.994,43.358 341,51.5C 339.778,55.6096 338.278,59.6096 336.5,63.5C 336.833,63.8333 337.167,64.1667 337.5,64.5C 345.792,58.21 353.792,51.5434 361.5,44.5C 365.31,32.1886 373.643,26.3552 386.5,27C 383.981,31.5439 381.648,36.2105 379.5,41C 375.672,44.7998 371.006,46.7998 365.5,47C 357.547,52.6184 349.88,58.6184 342.5,65C 338.682,68.9727 335.349,73.306 332.5,78C 343.027,75.7345 351.693,70.4012 358.5,62C 364.61,59.3587 370.943,58.8587 377.5,60.5C 371.218,71.14 361.885,75.64 349.5,74C 342.557,77.3876 335.724,80.8876 329,84.5C 323.479,95.9095 321.146,107.91 322,120.5C 325.333,115.833 328.667,111.167 332,106.5C 333.737,102.351 334.737,98.0172 335,93.5C 338.914,87.9509 344.081,83.9509 350.5,81.5C 352.035,93.7299 346.869,102.063 335,106.5C 330.914,113.007 326.58,119.34 322,125.5C 322.421,138.766 326.088,151.099 333,162.5C 333.56,156.672 334.06,150.838 334.5,145C 334.727,140.923 333.893,137.09 332,133.5C 331.333,130.5 331.333,127.5 332,124.5C 334.333,120.833 336.667,117.167 339,113.5C 345.268,123.214 344.935,132.547 338,141.5C 337.417,147.994 336.917,154.494 336.5,161C 336.428,164.29 336.928,167.456 338,170.5C 344.8,179.637 353.133,186.97 363,192.5C 360.883,182.265 355.717,173.932 347.5,167.5C 344.574,161.159 343.74,154.492 345,147.5C 355.72,153.272 360.387,162.272 359,174.5C 362,181.167 365,187.833 368,194.5C 376.214,199.182 385.047,202.182 394.5,203.5C 397.093,203.418 399.093,202.252 400.5,200C 394.404,193.894 387.07,190.56 378.5,190C 372.951,186.086 368.951,180.919 366.5,174.5C 378.686,173.145 387.019,178.311 391.5,190C 395.391,192.734 399.391,195.234 403.5,197.5C 407.63,195.265 411.63,192.765 415.5,190C 417.833,186.333 420.167,182.667 422.5,179C 427.999,175.058 433.999,173.558 440.5,174.5C 437.018,185.813 429.352,191.646 417.5,192C 413.656,194.422 409.99,197.089 406.5,200C 407.927,201.797 409.76,202.964 412,203.5C 421.575,202.028 430.575,199.028 439,194.5C 441.727,188.046 444.727,181.712 448,175.5C 446.31,162.88 450.977,153.546 462,147.5C 465.295,158.884 461.962,167.551 452,173.5C 448.894,179.379 446.06,185.379 443.5,191.5C 444.002,192.521 444.668,192.688 445.5,192C 455.623,185.544 464.123,177.377 471,167.5C 471.058,158.801 470.391,150.135 469,141.5C 462.058,132.586 461.725,123.253 468,113.5C 469.944,117.11 472.277,120.443 475,123.5C 475.667,127.167 475.667,130.833 475,134.5C 473.107,138.09 472.273,141.923 472.5,146C 472.901,151.509 473.401,157.009 474,162.5C 481.597,150.443 484.93,137.443 484,123.5C 479.754,118.009 475.754,112.342 472,106.5C 460.261,101.983 455.095,93.65 456.5,81.5C 468.026,85.8904 474.192,94.2238 475,106.5C 478.333,111.167 481.667,115.833 485,120.5C 486.135,107.841 483.802,95.8408 478,84.5C 471.943,81.2209 465.776,78.0542 459.5,75C 446.424,76.294 436.424,71.4607 429.5,60.5C 440.866,56.6965 449.533,59.8632 455.5,70C 461.599,73.5592 467.933,76.2259 474.5,78C 471.557,72.7888 467.89,68.1222 463.5,64C 456.452,57.9508 449.119,52.2841 441.5,47C 435.823,46.8464 431.156,44.6797 427.5,40.5C 424.786,36.088 422.952,31.4213 422,26.5C 426.402,27.9156 430.902,29.0823 435.5,30C 440.497,33.1432 443.664,37.6432 445,43.5C 452.725,51.0616 460.892,58.0616 469.5,64.5C 469.833,64.1667 470.167,63.8333 470.5,63.5C 469.098,59.4612 467.598,55.4612 466,51.5C 459.849,47.0258 455.682,41.1925 453.5,34C 454.292,29.1663 455.125,24.333 456,19.5C 459.367,23.2026 463.034,26.536 467,29.5C 469.591,36.6726 470.258,44.006 469,51.5C 472.98,63.7937 478.314,75.4604 485,86.5C 486.874,91.788 488.541,97.1213 490,102.5C 490.377,98.9813 490.877,95.4813 491.5,92C 489.128,86.0222 488.295,79.8556 489,73.5C 491.667,69.5 494.333,65.5 497,61.5C 497.893,60.2888 498.726,60.2888 499.5,61.5C 503.039,68.245 503.873,75.245 502,82.5C 498.837,86.1559 496.171,90.1559 494,94.5C 491.989,105.727 490.989,117.061 491,128.5C 489.956,135.323 488.623,141.99 487,148.5C 492.948,143.602 495.948,137.269 496,129.5C 500.46,122.844 506.627,118.51 514.5,116.5C 515.652,125.065 512.986,132.232 506.5,138C 501.971,139.514 497.805,141.681 494,144.5C 490.667,148.5 487.333,152.5 484,156.5C 478.668,167.663 471.501,177.496 462.5,186C 465.179,185.782 467.845,185.115 470.5,184C 474.724,178.432 480.058,174.432 486.5,172C 491.825,172.325 497.159,172.992 502.5,174C 498.797,177.367 495.464,181.034 492.5,185C 485.82,187.591 478.986,188.091 472,186.5C 465.887,188.806 459.72,190.973 453.5,193C 443.127,200.126 431.793,205.126 419.5,208C 422.107,208.818 424.774,209.318 427.5,209.5C 432.309,208.438 437.142,207.438 442,206.5C 449.793,207.313 456.293,210.647 461.5,216.5C 454.199,220.557 446.532,221.724 438.5,220C 435.681,217.425 432.681,215.092 429.5,213C 413.236,208.821 396.902,208.488 380.5,212C 376.359,213.572 372.692,215.905 369.5,219C 361.089,222.401 353.089,221.568 345.5,216.5C 350.38,211.062 356.38,207.728 363.5,206.5C 368.387,207.264 373.22,208.264 378,209.5C 380.856,209.129 383.689,208.629 386.5,208C 374.441,204.637 363.108,199.637 352.5,193C 346.667,190.833 340.833,188.667 335,186.5C 327.985,188.154 321.151,187.654 314.5,185C 311.536,181.034 308.203,177.367 304.5,174C 312.331,171.702 319.998,172.036 327.5,175C 330.5,178 333.5,181 336.5,184C 339.089,185.314 341.756,185.981 344.5,186C 335.499,177.496 328.332,167.663 323,156.5C 319.761,153.017 316.761,149.35 314,145.5C 310.032,142.098 305.532,139.598 300.5,138C 294.346,132.031 291.68,124.864 292.5,116.5C 299.433,118.543 305.266,122.209 310,127.5C 311.212,135.088 314.212,141.754 319,147.5C 316.516,129.626 314.516,111.626 313,93.5C 310.578,89.6562 307.911,85.9895 305,82.5C 303.659,74.7017 304.826,67.3683 308.5,60.5C 312.207,64.0441 315.374,68.0441 318,72.5C 318.667,76.1667 318.667,79.8333 318,83.5C 315.081,89.6766 314.747,96.0099 317,102.5C 319.872,90.2117 324.872,78.8784 332,68.5C 333.803,62.7578 335.803,57.0911 338,51.5C 338.281,47.8377 338.115,44.1711 337.5,40.5C 337.542,37.7414 338.042,35.0747 339,32.5C 342.641,28.0239 346.474,23.6905 350.5,19.5 Z"/></g>
<g><path style="opacity:1" fill="#191919" d="M 594.5,66.5 C 600.468,66.6049 601.802,69.1049 598.5,74C 594.25,76.3742 590.084,78.8742 586,81.5C 585.333,97.1667 585.333,112.833 586,128.5C 589.667,130.833 593.333,133.167 597,135.5C 606.25,130.126 615.416,124.626 624.5,119C 630.5,118.667 631.833,121 628.5,126C 617.957,132.104 607.29,137.937 596.5,143.5C 589.793,140.73 583.626,137.064 578,132.5C 577.333,114.167 577.333,95.8333 578,77.5C 583.307,73.4378 588.807,69.7711 594.5,66.5 Z"/></g>
<g><path style="opacity:1" fill="#171717" d="M 685.5,66.5 C 690.675,65.5071 692.509,67.5071 691,72.5C 681.748,78.5443 672.248,84.2109 662.5,89.5C 661.345,92.4459 661.179,95.4459 662,98.5C 680.136,87.1963 698.636,76.5296 717.5,66.5C 724.66,68.9967 731.16,72.6633 737,77.5C 737.667,84.1667 737.667,90.8333 737,97.5C 735.938,98.8993 734.605,99.8993 733,100.5C 728,97.8333 723,95.1667 718,92.5C 713.435,94.8661 708.935,97.3661 704.5,100C 699.712,99.9019 698.379,97.5686 700.5,93C 706.269,89.699 712.103,86.5323 718,83.5C 721.876,84.884 725.376,86.884 728.5,89.5C 729.652,86.8938 729.818,84.2272 729,81.5C 725.333,79.1667 721.667,76.8333 718,74.5C 698.833,85.6667 679.667,96.8333 660.5,108C 658.833,108.667 657.167,108.667 655.5,108C 654.353,100.58 654.187,93.0799 655,85.5C 665.315,79.2669 675.481,72.9335 685.5,66.5 Z"/></g>
<g><path style="opacity:1" fill="#171717" d="M 789.5,155.5 C 790.828,135.329 790.828,114.996 789.5,94.5C 788.893,94.6236 788.56,94.9569 788.5,95.5C 787.193,96.1534 785.86,96.8201 784.5,97.5C 783.667,114.824 783.167,132.157 783,149.5C 777.923,153.624 772.423,157.124 766.5,160C 764.559,160.743 762.726,160.576 761,159.5C 760.333,134.833 760.333,110.167 761,85.5C 771.625,78.7724 782.458,72.439 793.5,66.5C 800.66,68.9967 807.16,72.6633 813,77.5C 813.667,107.167 813.667,136.833 813,166.5C 812.626,167.416 812.126,168.25 811.5,169C 806.334,171.748 801.334,174.748 796.5,178C 790.5,178.333 789.167,176 792.5,171C 796.75,168.626 800.916,166.126 805,163.5C 805.667,136.167 805.667,108.833 805,81.5C 801.22,77.6788 796.72,75.8455 791.5,76C 783.833,80.5 776.167,85 768.5,89.5C 767.5,109.489 767.167,129.489 767.5,149.5C 770.179,149.327 772.513,148.327 774.5,146.5C 775.333,129.176 775.833,111.843 776,94.5C 781.746,90.4207 787.746,86.754 794,83.5C 795.605,84.1007 796.938,85.1007 798,86.5C 798.667,110.5 798.667,134.5 798,158.5C 787.144,165.93 775.811,172.596 764,178.5C 757.855,175.427 751.855,172.094 746,168.5C 745.333,137.833 745.333,107.167 746,76.5C 751.167,73.3333 756.333,70.1667 761.5,67C 766.667,65.5 768.5,67.3333 767,72.5C 762.503,75.7494 757.837,78.7494 753,81.5C 752.333,108.833 752.333,136.167 753,163.5C 756.424,165.918 760.09,167.918 764,169.5C 772.752,165.209 781.252,160.542 789.5,155.5 Z"/></g>
<g><path style="opacity:1" fill="#121212" d="M 837.5,66.5 C 842.675,65.5071 844.509,67.5071 843,72.5C 838.503,75.7494 833.837,78.7494 829,81.5C 828.167,107.173 828.334,132.84 829.5,158.5C 831.5,157.5 833.5,156.5 835.5,155.5C 836.333,143.848 836.833,132.181 837,120.5C 839,117.833 841,117.833 843,120.5C 843.667,133.5 843.667,146.5 843,159.5C 837.423,163.621 831.423,166.955 825,169.5C 823.893,169.415 822.893,169.081 822,168.5C 821.333,137.833 821.333,107.167 822,76.5C 827.146,73.0179 832.313,69.6845 837.5,66.5 Z"/></g>
<g><path style="opacity:1" fill="#141414" d="M 928.5,66.5 C 933.675,65.5071 935.509,67.5071 934,72.5C 924.748,78.5443 915.248,84.2109 905.5,89.5C 904.167,111.5 904.167,133.5 905.5,155.5C 909.129,157.3 912.629,159.3 916,161.5C 925.25,156.126 934.416,150.626 943.5,145C 946.901,143.865 948.901,145.032 949.5,148.5C 949.314,150.58 948.314,152.08 946.5,153C 936.447,159.026 926.114,164.526 915.5,169.5C 909.304,166.804 903.471,163.471 898,159.5C 897.333,134.833 897.333,110.167 898,85.5C 908.315,79.2669 918.481,72.9335 928.5,66.5 Z"/></g>
<g><path style="opacity:1" fill="#181818" d="M 55.5,66.5 C 60.0001,66.1638 61.8334,68.1638 61,72.5C 56.5825,75.2926 52.0825,77.9593 47.5,80.5C 46.3335,108.161 46.1668,135.827 47,163.5C 51.4968,166.749 56.1635,169.749 61,172.5C 62.1412,175.857 60.9746,177.857 57.5,178.5C 50.9651,175.468 44.7985,171.801 39,167.5C 38.3333,137.5 38.3333,107.5 39,77.5C 44.3075,73.4378 49.8075,69.7711 55.5,66.5 Z"/></g>
<g><path style="opacity:1" fill="#1a1a1a" d="M 84.5,66.5 C 91.004,66.1377 92.6707,68.6377 89.5,74C 79.532,79.6527 69.532,85.3193 59.5,91C 53.5,91.3333 52.1667,89 55.5,84C 65.5624,78.6436 75.2291,72.8103 84.5,66.5 Z"/></g>
<g><path style="opacity:1" fill="#181818" d="M 126.5,166.5 C 127.209,167.404 128.209,167.737 129.5,167.5C 129.831,138.662 129.498,109.995 128.5,81.5C 125.067,78.9415 121.401,76.6081 117.5,74.5C 108.297,80.1993 98.9635,85.6993 89.5,91C 83.5,91.3333 82.1667,89 85.5,84C 95.9801,78.0127 106.48,72.1794 117,66.5C 123.926,69.1303 130.26,72.7969 136,77.5C 136.667,110.5 136.667,143.5 136,176.5C 134.534,178.325 132.701,178.825 130.5,178C 124.915,174.625 119.415,171.125 114,167.5C 113.333,146.167 113.333,124.833 114,103.5C 116.333,100.833 118.667,100.833 121,103.5C 121.333,123.5 121.667,143.5 122,163.5C 123.615,164.386 125.115,165.386 126.5,166.5 Z"/></g>
<g><path style="opacity:1" fill="#171717" d="M 161.5,66.5 C 163.722,66.178 165.556,66.8446 167,68.5C 167.333,85.8333 167.667,103.167 168,120.5C 172.837,123.251 177.503,126.251 182,129.5C 182.667,143.5 182.667,157.5 182,171.5C 179.821,175.352 177.488,175.352 175,171.5C 174.833,158.487 174.333,145.487 173.5,132.5C 168.57,130.12 164.07,127.12 160,123.5C 159.833,108.156 159.333,92.8225 158.5,77.5C 156.668,78.2485 155.001,79.2485 153.5,80.5C 152.667,92.1524 152.167,103.819 152,115.5C 149.16,118.371 146.826,118.037 145,114.5C 144.333,102.167 144.333,89.8333 145,77.5C 150.307,73.4378 155.807,69.7711 161.5,66.5 Z"/></g>
<g><path style="opacity:1" fill="#181818" d="M 198.5,124.5 C 197.174,138.672 197.174,153.006 198.5,167.5C 199.107,167.376 199.44,167.043 199.5,166.5C 201.229,165.883 202.729,164.883 204,163.5C 204.333,152.167 204.667,140.833 205,129.5C 211.069,124.217 217.902,120.717 225.5,119C 228.167,121.333 228.167,123.667 225.5,126C 221.071,128.102 216.905,130.602 213,133.5C 212.667,144.833 212.333,156.167 212,167.5C 206.202,171.801 200.035,175.468 193.5,178.5C 191.971,178.471 190.804,177.804 190,176.5C 189.333,158.167 189.333,139.833 190,121.5C 190.93,119.448 192.43,117.948 194.5,117C 203.224,112.645 211.557,107.812 219.5,102.5C 220.493,94.3501 220.826,86.0168 220.5,77.5C 219.209,77.2627 218.209,77.596 217.5,78.5C 216.193,79.1534 214.86,79.8201 213.5,80.5C 212.67,86.4725 212.17,92.4725 212,98.5C 206.582,101.793 201.082,104.96 195.5,108C 190.917,108.934 189.417,107.1 191,102.5C 195.497,99.2506 200.163,96.2506 205,93.5C 205.333,87.8333 205.667,82.1667 206,76.5C 211.464,72.5182 217.297,69.1849 223.5,66.5C 224.554,66.6799 225.554,67.0133 226.5,67.5C 227.666,80.4872 227.833,93.4872 227,106.5C 217.689,112.9 208.189,118.9 198.5,124.5 Z"/></g>
<g><path style="opacity:1" fill="#151515" d="M 636.5,88.5 C 636.56,89.0431 636.893,89.3764 637.5,89.5C 638.8,86.6908 638.8,84.0241 637.5,81.5C 634.151,79.066 630.651,76.7327 627,74.5C 617.582,80.1263 608.082,85.6263 598.5,91C 593.917,91.9337 592.417,90.1004 594,85.5C 604.625,78.7724 615.458,72.439 626.5,66.5C 633.188,68.9265 639.355,72.2598 645,76.5C 645.5,84.4931 645.666,92.4931 645.5,100.5C 639.43,99.1366 633.764,96.6366 628.5,93C 627.5,92.3333 626.5,92.3333 625.5,93C 617.251,97.7074 609.084,102.541 601,107.5C 600.667,113.167 600.333,118.833 600,124.5C 598.267,126.602 596.267,126.935 594,125.5C 593.186,117.587 593.353,109.754 594.5,102C 605.105,95.4469 615.939,89.2802 627,83.5C 630.415,84.7897 633.582,86.4564 636.5,88.5 Z"/></g>
<g><path style="opacity:1" fill="#181818" d="M 867.5,66.5 C 875.539,68.4364 882.706,72.1031 889,77.5C 889.667,89.8333 889.667,102.167 889,114.5C 885.77,117.531 882.27,120.197 878.5,122.5C 882.707,124.341 886.207,127.008 889,130.5C 889.96,143.262 889.627,155.929 888,168.5C 885.67,170.032 883.67,169.698 882,167.5C 881.667,156.167 881.333,144.833 881,133.5C 876.916,130.874 872.75,128.374 868.5,126C 865.735,123.034 866.068,120.367 869.5,118C 873.577,116.213 877.41,114.046 881,111.5C 881.667,101.5 881.667,91.5 881,81.5C 877.333,79.1667 873.667,76.8333 870,74.5C 861.582,79.6261 853.082,84.6261 844.5,89.5C 843.52,92.0865 843.187,94.7531 843.5,97.5C 852.055,93.5533 860.389,89.0533 868.5,84C 870.367,83.2888 871.867,83.7888 873,85.5C 873.667,92.8333 873.667,100.167 873,107.5C 867.582,110.793 862.082,113.96 856.5,117C 851.917,117.934 850.417,116.1 852,111.5C 856.497,108.251 861.163,105.251 866,102.5C 866.818,99.7728 866.652,97.1062 865.5,94.5C 857.963,99.1994 850.297,103.699 842.5,108C 840.559,108.743 838.726,108.576 837,107.5C 836.333,100.167 836.333,92.8333 837,85.5C 847.315,79.2669 857.481,72.9335 867.5,66.5 Z"/></g>
<g><path style="opacity:1" fill="#181818" d="M 176.5,75.5 C 178.467,75.2606 180.301,75.5939 182,76.5C 182.667,89.5 182.667,102.5 182,115.5C 179.667,118.167 177.333,118.167 175,115.5C 174.333,102.833 174.333,90.1667 175,77.5C 175.717,76.9558 176.217,76.2891 176.5,75.5 Z"/></g>
<g><path style="opacity:1" fill="#171717" d="M 943.5,75.5 C 951.489,77.4117 958.656,81.0784 965,86.5C 970.622,109.267 964.288,113.934 946,100.5C 941.916,103.126 937.75,105.626 933.5,108C 927.833,109.333 926.167,107.333 928.5,102C 933.5,99 938.5,96 943.5,93C 948.547,93.2666 953.047,95.0999 957,98.5C 957.821,95.4459 957.655,92.4459 956.5,89.5C 953.167,87.5 949.833,85.5 946.5,83.5C 937.423,88.1203 928.59,93.1203 920,98.5C 919.667,104.5 919.333,110.5 919,116.5C 917.274,117.576 915.441,117.743 913.5,117C 912.353,109.58 912.187,102.08 913,94.5C 922.979,87.766 933.146,81.4327 943.5,75.5 Z"/></g>
<g><path style="opacity:1" fill="#7f7f7f" d="M 217.5,78.5 C 218.209,77.596 219.209,77.2627 220.5,77.5C 220.826,86.0168 220.493,94.3501 219.5,102.5C 220.134,94.0968 219.467,86.0968 217.5,78.5 Z"/></g>
<g><path style="opacity:1" fill="#999999" d="M 637.5,81.5 C 638.8,84.0241 638.8,86.6908 637.5,89.5C 636.893,89.3764 636.56,89.0431 636.5,88.5C 637.468,86.3926 637.802,84.0593 637.5,81.5 Z"/></g>
<g><path style="opacity:1" fill="#727272" d="M 128.5,81.5 C 129.498,109.995 129.831,138.662 129.5,167.5C 128.209,167.737 127.209,167.404 126.5,166.5C 128.492,138.52 129.158,110.186 128.5,81.5 Z"/></g>
<g><path style="opacity:1" fill="#181818" d="M 107.5,98.5 C 106.814,121.372 106.147,144.372 105.5,167.5C 100.403,171.225 95.0696,174.725 89.5,178C 87.2992,178.825 85.4659,178.325 84,176.5C 83.3333,152.5 83.3333,128.5 84,104.5C 86.9372,101.694 89.4372,102.027 91.5,105.5C 91.167,126.177 91.5003,146.844 92.5,167.5C 93.1067,167.376 93.44,167.043 93.5,166.5C 95.2292,165.883 96.7292,164.883 98,163.5C 98.3333,140.5 98.6667,117.5 99,94.5C 103.916,90.957 109.083,87.7903 114.5,85C 121.18,83.3302 122.846,85.3302 119.5,91C 115.268,93.2746 111.268,95.7746 107.5,98.5 Z"/></g>
<g><path style="opacity:1" fill="#161616" d="M 70.5,92.5 C 72.7224,92.178 74.5557,92.8446 76,94.5C 76.6667,118.833 76.6667,143.167 76,167.5C 73.6667,170.167 71.3333,170.167 69,167.5C 68.8331,146.159 68.3331,124.826 67.5,103.5C 65.9991,104.752 64.3325,105.752 62.5,106.5C 61.667,123.824 61.167,141.157 61,158.5C 58.6667,161.167 56.3333,161.167 54,158.5C 53.3333,140.167 53.3333,121.833 54,103.5C 59.3075,99.4378 64.8075,95.7711 70.5,92.5 Z"/></g>
<g><path style="opacity:1" fill="#b5b5b5" d="M 788.5,95.5 C 788.56,94.9569 788.893,94.6236 789.5,94.5C 790.828,114.996 790.828,135.329 789.5,155.5C 789.83,135.326 789.497,115.326 788.5,95.5 Z"/></g>
<g><path style="opacity:1" fill="#c1c1c1" d="M 107.5,98.5 C 107.667,121.169 107.5,143.836 107,166.5C 106.617,167.056 106.117,167.389 105.5,167.5C 106.147,144.372 106.814,121.372 107.5,98.5 Z"/></g>
<g><path style="opacity:1" fill="#141414" d="M 624.5,101.5 C 631.986,103.326 638.819,106.659 645,111.5C 645.667,130.5 645.667,149.5 645,168.5C 639.145,172.094 633.145,175.427 627,178.5C 623.621,177.13 622.788,174.797 624.5,171.5C 629.082,168.959 633.582,166.293 638,163.5C 638.833,147.49 638.666,131.49 637.5,115.5C 634.065,113.367 630.565,111.367 627,109.5C 622.192,112.795 617.026,115.461 611.5,117.5C 607.902,115.646 607.568,113.146 610.5,110C 615.397,107.392 620.063,104.559 624.5,101.5 Z"/></g>
<g><path style="opacity:1" fill="#111111" d="M 685.5,101.5 C 687.467,101.261 689.301,101.594 691,102.5C 691.667,121.5 691.667,140.5 691,159.5C 689,160.833 687,160.833 685,159.5C 684.18,140.093 684.347,120.76 685.5,101.5 Z"/></g>
<g><path style="opacity:1" fill="#131313" d="M 715.5,101.5 C 720.675,100.507 722.509,102.507 721,107.5C 716.582,110.293 712.082,112.959 707.5,115.5C 706.667,133.157 706.167,150.824 706,168.5C 704.274,169.576 702.441,169.743 700.5,169C 699.341,149.907 699.174,130.74 700,111.5C 705.146,108.018 710.313,104.685 715.5,101.5 Z"/></g>
<g><path style="opacity:1" fill="#d1d1d1" d="M 91.5,105.5 C 92.1667,125.833 92.8333,146.167 93.5,166.5C 93.44,167.043 93.1067,167.376 92.5,167.5C 91.5003,146.844 91.167,126.177 91.5,105.5 Z"/></g>
<g><path style="opacity:1" fill="#141414" d="M 669.5,166.5 C 669.833,151.152 669.499,135.819 668.5,120.5C 667.893,120.624 667.56,120.957 667.5,121.5C 664.161,123.177 660.827,124.844 657.5,126.5C 653.589,123.74 653.589,120.906 657.5,118C 662.167,115.333 666.833,112.667 671.5,110C 673.367,109.289 674.867,109.789 676,111.5C 676.333,128.833 676.667,146.167 677,163.5C 680.59,166.046 684.423,168.213 688.5,170C 692.027,172.303 692.36,174.97 689.5,178C 688.5,178.667 687.5,178.667 686.5,178C 681.167,175 675.833,172 670.5,169C 669.748,168.329 669.414,167.496 669.5,166.5 Z"/></g>
<g><path style="opacity:1" fill="#161616" d="M 944.5,109.5 C 948.976,109.822 950.476,112.156 949,116.5C 939.333,122.167 929.667,127.833 920,133.5C 919.667,139.167 919.333,144.833 919,150.5C 917,153.167 915,153.167 913,150.5C 912.333,143.167 912.333,135.833 913,128.5C 923.813,122.518 934.313,116.185 944.5,109.5 Z"/></g>
<g><path style="opacity:1" fill="#919191" d="M 667.5,121.5 C 667.56,120.957 667.893,120.624 668.5,120.5C 669.499,135.819 669.833,151.152 669.5,166.5C 668.833,151.5 668.167,136.5 667.5,121.5 Z"/></g>
<g><path style="opacity:1" fill="#b7b7b7" d="M 198.5,124.5 C 198.171,138.677 198.504,152.677 199.5,166.5C 199.44,167.043 199.107,167.376 198.5,167.5C 197.174,153.006 197.174,138.672 198.5,124.5 Z"/></g>
<g><path style="opacity:1" fill="#131313" d="M 852.5,127.5 C 859.986,129.326 866.819,132.659 873,137.5C 873.667,150.5 873.667,163.5 873,176.5C 871,179.167 869,179.167 867,176.5C 866.833,164.819 866.333,153.152 865.5,141.5C 863.5,140.5 861.5,139.5 859.5,138.5C 858.668,148.483 858.168,158.483 858,168.5C 852.582,171.793 847.082,174.96 841.5,178C 836.809,178.117 835.476,175.951 837.5,171.5C 842.082,168.959 846.582,166.293 851,163.5C 851.187,151.425 851.687,139.425 852.5,127.5 Z"/></g>
<g><path style="opacity:1" fill="#181818" d="M 943.5,127.5 C 951.489,129.412 958.656,133.078 965,138.5C 965.667,145.167 965.667,151.833 965,158.5C 954.144,165.93 942.811,172.596 931,178.5C 926.523,176.049 926.356,173.215 930.5,170C 939.294,165.367 947.961,160.534 956.5,155.5C 957.833,150.833 957.833,146.167 956.5,141.5C 952.871,139.7 949.371,137.7 946,135.5C 941.916,138.126 937.75,140.626 933.5,143C 928.333,144.5 926.5,142.667 928,137.5C 933.146,134.018 938.313,130.685 943.5,127.5 Z"/></g>
<g><path style="opacity:1" fill="#171717" d="M 625.5,135.5 C 627.39,135.297 628.89,135.963 630,137.5C 630.667,144.833 630.667,152.167 630,159.5C 619.31,166.346 608.31,172.679 597,178.5C 590.855,175.427 584.855,172.094 579,168.5C 577.409,161.608 577.076,154.608 578,147.5C 578.949,144.8 580.783,143.967 583.5,145C 587.935,147.634 592.435,150.134 597,152.5C 601.399,150.384 605.566,147.884 609.5,145C 614,144.167 615.833,146 615,150.5C 608.901,156.304 601.734,159.471 593.5,160C 591.167,158.5 588.833,157 586.5,155.5C 585.348,158.106 585.182,160.773 586,163.5C 589.362,166.015 593.029,168.015 597,169.5C 605.617,165.051 614.117,160.384 622.5,155.5C 623.33,149.528 623.83,143.528 624,137.5C 624.717,136.956 625.217,136.289 625.5,135.5 Z"/></g>
<g><path style="opacity:1" fill="#797979" d="M 401.5,202.5 C 402.978,202.238 404.311,202.571 405.5,203.5C 404.833,203.833 404.167,204.167 403.5,204.5C 402.287,204.253 401.62,203.586 401.5,202.5 Z"/></g>
</svg>
