<?xml version="1.0" encoding="UTF-8"?>
<!DOCTYPE svg PUBLIC "-//W3C//DTD SVG 1.1//EN" "http://www.w3.org/Graphics/SVG/1.1/DTD/svg11.dtd">
<svg xmlns="http://www.w3.org/2000/svg" version="1.1" width="1047px" height="271px" style="shape-rendering:geometricPrecision; text-rendering:geometricPrecision; image-rendering:optimizeQuality; fill-rule:evenodd; clip-rule:evenodd" xmlns:xlink="http://www.w3.org/1999/xlink">
<g><path style="opacity:1" fill="#f8e2d2" d="M -0.5,-0.5 C 125.5,-0.5 251.5,-0.5 377.5,-0.5C 378.609,0.28997 379.942,0.78997 381.5,1C 380.5,1.33333 379.5,1.66667 378.5,2C 386.834,2.5205 387.167,3.18717 379.5,4C 381.301,4.31732 381.634,4.98398 380.5,6C 387.167,6.66667 387.167,7.33333 380.5,8C 383.028,10.0574 386.028,11.0574 389.5,11C 387.167,11.3333 384.833,11.6667 382.5,12C 385.544,12.3589 385.878,13.0255 383.5,14C 390.503,14.4966 390.837,15.1632 384.5,16C 387.028,18.0574 390.028,19.0574 393.5,19C 390.833,19.3333 388.167,19.6667 385.5,20C 389.852,20.4189 390.185,21.0855 386.5,22C 394.834,22.5205 395.167,23.1872 387.5,24C 389.301,24.3173 389.634,24.984 388.5,26C 394.175,26.4641 394.508,27.1307 389.5,28C 393.852,28.4189 394.185,29.0855 390.5,30C 399.833,30.6667 399.833,31.3333 390.5,32C 393.544,32.3589 393.878,33.0255 391.5,34C 398.503,34.4966 398.837,35.1632 392.5,36C 395.544,36.3589 395.878,37.0255 393.5,38C 397.852,38.4189 398.185,39.0855 394.5,40C 397.544,40.3589 397.878,41.0255 395.5,42C 397.81,42.4966 400.143,42.6633 402.5,42.5C 393.361,44.6341 387.361,50.3008 384.5,59.5C 376.792,66.5434 368.792,73.21 360.5,79.5C 360.986,70.5583 365.152,63.5583 373,58.5C 376.599,50.7879 377.099,42.7879 374.5,34.5C 368.657,38.831 364.157,44.1643 361,50.5C 360.737,55.8509 360.737,61.1842 361,66.5C 358.803,72.0911 356.803,77.7578 355,83.5C 347.822,93.8569 342.822,105.19 340,117.5C 337.792,111.017 338.125,104.684 341,98.5C 341.667,94.8333 341.667,91.1667 341,87.5C 338.374,83.0441 335.207,79.0441 331.5,75.5C 327.826,82.3683 326.659,89.7017 328,97.5C 330.911,100.99 333.578,104.656 336,108.5C 337.982,120.073 338.982,131.74 339,143.5C 339.841,150.372 341.174,157.038 343,163.5C 337.44,157.674 334.107,150.674 333,142.5C 331.122,140.957 329.622,139.124 328.5,137C 324.044,135.459 319.711,133.626 315.5,131.5C 314.723,139.858 317.39,147.025 323.5,153C 328.532,154.598 333.032,157.098 337,160.5C 344.507,169.012 350.84,178.346 356,188.5C 359.465,192.967 363.298,197.133 367.5,201C 364.821,200.782 362.155,200.115 359.5,199C 355.672,194.161 351.005,190.494 345.5,188C 339.452,187.337 333.452,187.67 327.5,189C 331.203,192.367 334.536,196.034 337.5,200C 344.151,202.654 350.985,203.154 358,201.5C 370.85,205.509 383.017,211.009 394.5,218C 399.5,219.667 404.5,221.333 409.5,223C 406.689,223.629 403.856,224.129 401,224.5C 396.22,223.264 391.387,222.264 386.5,221.5C 379.38,222.728 373.38,226.062 368.5,231.5C 375.666,236.043 383.333,237.209 391.5,235C 394.977,231.518 398.977,228.852 403.5,227C 419.906,223.488 436.24,223.821 452.5,228C 455.681,230.092 458.681,232.425 461.5,235C 469.651,237.119 477.318,235.952 484.5,231.5C 474.885,221.449 463.552,219.116 450.5,224.5C 448.077,224.406 445.744,223.906 443.5,223C 456.228,219.303 468.228,213.97 479.5,207C 482.432,205.855 485.432,205.022 488.5,204.5C 489.738,204.81 489.738,205.31 488.5,206C 490.167,206.333 491.833,206.667 493.5,207C 489.5,207.667 489.5,208.333 493.5,209C 492.833,209.333 492.167,209.667 491.5,210C 494.167,210.333 496.833,210.667 499.5,211C 497.5,211.333 495.5,211.667 493.5,212C 497.852,212.419 498.185,213.086 494.5,214C 496.833,214.333 499.167,214.667 501.5,215C 499.833,215.333 498.167,215.667 496.5,216C 499.028,218.057 502.028,219.057 505.5,219C 503.5,219.333 501.5,219.667 499.5,220C 501.301,220.317 501.634,220.984 500.5,222C 502.833,222.333 505.167,222.667 507.5,223C 505.833,223.333 504.167,223.667 502.5,224C 505.544,224.359 505.878,225.026 503.5,226C 505.5,226.333 507.5,226.667 509.5,227C 504.167,227.667 504.167,228.333 509.5,229C 508.5,229.333 507.5,229.667 506.5,230C 508.833,230.333 511.167,230.667 513.5,231C 511.833,231.333 510.167,231.667 508.5,232C 511.028,234.057 514.028,235.057 517.5,235C 515.5,235.333 513.5,235.667 511.5,236C 513.301,236.317 513.634,236.984 512.5,238C 515.5,238.333 518.5,238.667 521.5,239C 519.167,239.333 516.833,239.667 514.5,240C 515.5,240.333 516.5,240.667 517.5,241C 517.167,241.333 516.833,241.667 516.5,242C 519.5,242.333 522.5,242.667 525.5,243C 522.833,243.333 520.167,243.667 517.5,244C 518.833,244.333 520.167,244.667 521.5,245C 520.833,245.333 520.167,245.667 519.5,246C 526.503,246.497 526.837,247.163 520.5,248C 522.167,248.333 523.833,248.667 525.5,249C 524.5,249.333 523.5,249.667 522.5,250C 524.833,250.333 527.167,250.667 529.5,251C 522.833,251.667 522.833,252.333 529.5,253C 528.167,253.333 526.833,253.667 525.5,254C 528.167,254.333 530.833,254.667 533.5,255C 531.5,255.333 529.5,255.667 527.5,256C 530.51,257.921 533.844,258.921 537.5,259C 535.167,259.333 532.833,259.667 530.5,260C 531.5,260.333 532.5,260.667 533.5,261C 533.167,261.333 532.833,261.667 532.5,262C 535.5,262.333 538.5,262.667 541.5,263C 539.167,263.333 536.833,263.667 534.5,264C 537.544,264.359 537.878,265.026 535.5,266C 538.833,266.333 542.167,266.667 545.5,267C 542.833,267.333 540.167,267.667 537.5,268C 538.833,268.333 540.167,268.667 541.5,269C 540.584,269.278 539.918,269.778 539.5,270.5C 359.5,270.5 179.5,270.5 -0.5,270.5C -0.5,180.167 -0.5,89.8333 -0.5,-0.5 Z"/></g>
<g><path style="opacity:1" fill="#f8e3d5" d="M 377.5,-0.5 C 600.5,-0.5 823.5,-0.5 1046.5,-0.5C 1046.5,89.8333 1046.5,180.167 1046.5,270.5C 877.5,270.5 708.5,270.5 539.5,270.5C 539.918,269.778 540.584,269.278 541.5,269C 540.167,268.667 538.833,268.333 537.5,268C 540.167,267.667 542.833,267.333 545.5,267C 542.167,266.667 538.833,266.333 535.5,266C 537.878,265.026 537.544,264.359 534.5,264C 536.833,263.667 539.167,263.333 541.5,263C 538.5,262.667 535.5,262.333 532.5,262C 532.833,261.667 533.167,261.333 533.5,261C 532.5,260.667 531.5,260.333 530.5,260C 532.833,259.667 535.167,259.333 537.5,259C 533.844,258.921 530.51,257.921 527.5,256C 529.5,255.667 531.5,255.333 533.5,255C 530.833,254.667 528.167,254.333 525.5,254C 526.833,253.667 528.167,253.333 529.5,253C 522.833,252.333 522.833,251.667 529.5,251C 527.167,250.667 524.833,250.333 522.5,250C 523.5,249.667 524.5,249.333 525.5,249C 523.833,248.667 522.167,248.333 520.5,248C 526.837,247.163 526.503,246.497 519.5,246C 520.167,245.667 520.833,245.333 521.5,245C 520.167,244.667 518.833,244.333 517.5,244C 520.167,243.667 522.833,243.333 525.5,243C 522.5,242.667 519.5,242.333 516.5,242C 516.833,241.667 517.167,241.333 517.5,241C 516.5,240.667 515.5,240.333 514.5,240C 516.833,239.667 519.167,239.333 521.5,239C 518.5,238.667 515.5,238.333 512.5,238C 513.634,236.984 513.301,236.317 511.5,236C 513.5,235.667 515.5,235.333 517.5,235C 514.028,235.057 511.028,234.057 508.5,232C 510.167,231.667 511.833,231.333 513.5,231C 511.167,230.667 508.833,230.333 506.5,230C 507.5,229.667 508.5,229.333 509.5,229C 504.167,228.333 504.167,227.667 509.5,227C 507.5,226.667 505.5,226.333 503.5,226C 505.878,225.026 505.544,224.359 502.5,224C 504.167,223.667 505.833,223.333 507.5,223C 505.167,222.667 502.833,222.333 500.5,222C 501.634,220.984 501.301,220.317 499.5,220C 501.5,219.667 503.5,219.333 505.5,219C 502.028,219.057 499.028,218.057 496.5,216C 498.167,215.667 499.833,215.333 501.5,215C 499.167,214.667 496.833,214.333 494.5,214C 498.185,213.086 497.852,212.419 493.5,212C 495.5,211.667 497.5,211.333 499.5,211C 496.833,210.667 494.167,210.333 491.5,210C 492.167,209.667 492.833,209.333 493.5,209C 489.5,208.333 489.5,207.667 493.5,207C 491.833,206.667 490.167,206.333 488.5,206C 489.738,205.31 489.738,204.81 488.5,204.5C 492.844,201.281 497.677,200.614 503,202.5C 507.37,202.677 511.536,201.843 515.5,200C 518.464,196.034 521.797,192.367 525.5,189C 520.159,187.992 514.825,187.325 509.5,187C 503.058,189.432 497.724,193.432 493.5,199C 490.845,200.115 488.179,200.782 485.5,201C 494.586,191.99 502.086,181.823 508,170.5C 511,166.833 514,163.167 517,159.5C 520.805,156.681 524.971,154.514 529.5,153C 535.829,147.169 538.496,140.002 537.5,131.5C 524.357,134.802 517.191,143.135 516,156.5C 513.763,158.647 511.763,160.98 510,163.5C 511.623,156.99 512.956,150.323 514,143.5C 514.083,132.08 515.083,120.747 517,109.5C 519.667,105.5 522.333,101.5 525,97.5C 526.873,90.245 526.039,83.245 522.5,76.5C 521.726,75.2888 520.893,75.2888 520,76.5C 517.333,80.5 514.667,84.5 512,88.5C 511.09,94.8943 511.923,101.061 514.5,107C 513.877,110.481 513.377,113.981 513,117.5C 509.925,105.015 504.925,93.3485 498,82.5C 496,77.1667 494,71.8333 492,66.5C 493.258,59.006 492.591,51.6726 490,44.5C 486.034,41.536 482.367,38.2026 479,34.5C 477.81,39.1901 476.977,44.0234 476.5,49C 478.682,56.1925 482.849,62.0258 489,66.5C 490.222,70.6096 491.722,74.6096 493.5,78.5C 493.167,78.8333 492.833,79.1667 492.5,79.5C 483.892,73.0616 475.725,66.0616 468,58.5C 466.664,52.6432 463.497,48.1432 458.5,45C 453.902,44.0823 449.402,42.9156 445,41.5C 446.094,53.4659 452.594,60.2992 464.5,62C 472.453,67.6184 480.12,73.6184 487.5,80C 491.318,83.9727 494.651,88.306 497.5,93C 490.933,91.2259 484.599,88.5592 478.5,85C 472.533,74.8632 463.866,71.6965 452.5,75.5C 458.508,85.8375 467.508,90.3375 479.5,89C 486.167,92 492.833,95 499.5,98C 504.246,105.798 507.079,114.298 508,123.5C 508.667,127.5 508.667,131.5 508,135.5C 504.667,130.833 501.333,126.167 498,121.5C 497.192,109.224 491.026,100.89 479.5,96.5C 478.096,108.651 483.263,116.984 495,121.5C 499.333,127.833 503.667,134.167 508,140.5C 507.577,153.772 503.91,166.105 497,177.5C 496.401,172.009 495.901,166.509 495.5,161C 495.273,156.923 496.107,153.09 498,149.5C 498.667,145.833 498.667,142.167 498,138.5C 495.667,135.167 493.333,131.833 491,128.5C 484.725,138.253 485.058,147.586 492,156.5C 492.624,164.529 493.457,172.529 494.5,180.5C 488.053,191.447 479.387,200.281 468.5,207C 467.668,207.688 467.002,207.521 466.5,206.5C 469.167,200.833 471.833,195.167 474.5,189.5C 484.625,183.228 488.125,174.228 485,162.5C 479.768,165.507 475.601,169.507 472.5,174.5C 469.956,174.896 467.789,174.229 466,172.5C 442.026,135.566 420.859,96.8993 402.5,56.5C 404.893,51.6524 406.893,46.6524 408.5,41.5C 406.5,41.8333 404.5,42.1667 402.5,42.5C 400.143,42.6633 397.81,42.4966 395.5,42C 397.878,41.0255 397.544,40.3589 394.5,40C 398.185,39.0855 397.852,38.4189 393.5,38C 395.878,37.0255 395.544,36.3589 392.5,36C 398.837,35.1632 398.503,34.4966 391.5,34C 393.878,33.0255 393.544,32.3589 390.5,32C 399.833,31.3333 399.833,30.6667 390.5,30C 394.185,29.0855 393.852,28.4189 389.5,28C 394.508,27.1307 394.175,26.4641 388.5,26C 389.634,24.984 389.301,24.3173 387.5,24C 395.167,23.1872 394.834,22.5205 386.5,22C 390.185,21.0855 389.852,20.4189 385.5,20C 388.167,19.6667 390.833,19.3333 393.5,19C 390.028,19.0574 387.028,18.0574 384.5,16C 390.837,15.1632 390.503,14.4966 383.5,14C 385.878,13.0255 385.544,12.3589 382.5,12C 384.833,11.6667 387.167,11.3333 389.5,11C 386.028,11.0574 383.028,10.0574 380.5,8C 387.167,7.33333 387.167,6.66667 380.5,6C 381.634,4.98398 381.301,4.31732 379.5,4C 387.167,3.18717 386.834,2.5205 378.5,2C 379.5,1.66667 380.5,1.33333 381.5,1C 379.942,0.78997 378.609,0.28997 377.5,-0.5 Z"/></g>
<g><path style="opacity:1" fill="#360d6e" d="M 402.5,42.5 C 404.5,42.1667 406.5,41.8333 408.5,41.5C 406.893,46.6524 404.893,51.6524 402.5,56.5C 400.456,57.0312 398.789,58.1978 397.5,60C 392.358,60.4484 387.692,62.1151 383.5,65C 377.792,70.3767 371.792,75.3767 365.5,80C 361.682,83.9727 358.349,88.306 355.5,93C 366.027,90.7345 374.693,85.4012 381.5,77C 387.61,74.3587 393.943,73.8587 400.5,75.5C 393.576,86.4607 383.576,91.294 370.5,90C 364.954,92.9398 359.287,95.6065 353.5,98C 346.811,109.594 343.977,122.094 345,135.5C 348.333,130.833 351.667,126.167 355,121.5C 356.737,117.351 357.737,113.017 358,108.5C 361.914,102.951 367.081,98.9509 373.5,96.5C 374.993,108.488 369.993,116.822 358.5,121.5C 353.704,128.263 349.037,135.097 344.5,142C 345.733,154.697 349.566,166.531 356,177.5C 356.56,171.672 357.06,165.838 357.5,160C 357.727,155.923 356.893,152.09 355,148.5C 354.333,145.5 354.333,142.5 355,139.5C 357.333,135.833 359.667,132.167 362,128.5C 368.311,138.477 367.978,148.143 361,157.5C 359.908,165.836 359.242,174.17 359,182.5C 366.092,192.927 375.092,201.26 386,207.5C 383.883,197.265 378.717,188.932 370.5,182.5C 367.407,176.133 366.74,169.466 368.5,162.5C 378.837,168.508 383.337,177.508 382,189.5C 385,196.167 388,202.833 391,209.5C 399.019,214.177 407.686,217.177 417,218.5C 419.664,218.251 421.831,217.085 423.5,215C 417.404,208.894 410.07,205.56 401.5,205C 395.951,201.086 391.951,195.919 389.5,189.5C 401.686,188.145 410.019,193.311 414.5,205C 418.391,207.734 422.391,210.234 426.5,212.5C 434.648,209.183 440.481,203.517 444,195.5C 449.677,190.326 456.177,188.326 463.5,189.5C 460.015,200.817 452.349,206.65 440.5,207C 436.656,209.422 432.99,212.089 429.5,215C 430.927,216.797 432.76,217.964 435,218.5C 444.575,217.028 453.575,214.028 462,209.5C 464.727,203.046 467.727,196.712 471,190.5C 471.265,185.118 471.765,179.785 472.5,174.5C 475.601,169.507 479.768,165.507 485,162.5C 488.125,174.228 484.625,183.228 474.5,189.5C 471.833,195.167 469.167,200.833 466.5,206.5C 467.002,207.521 467.668,207.688 468.5,207C 479.387,200.281 488.053,191.447 494.5,180.5C 493.457,172.529 492.624,164.529 492,156.5C 485.058,147.586 484.725,138.253 491,128.5C 493.333,131.833 495.667,135.167 498,138.5C 498.667,142.167 498.667,145.833 498,149.5C 496.107,153.09 495.273,156.923 495.5,161C 495.901,166.509 496.401,172.009 497,177.5C 503.91,166.105 507.577,153.772 508,140.5C 503.667,134.167 499.333,127.833 495,121.5C 483.263,116.984 478.096,108.651 479.5,96.5C 491.026,100.89 497.192,109.224 498,121.5C 501.333,126.167 504.667,130.833 508,135.5C 508.667,131.5 508.667,127.5 508,123.5C 507.079,114.298 504.246,105.798 499.5,98C 492.833,95 486.167,92 479.5,89C 467.508,90.3375 458.508,85.8375 452.5,75.5C 463.866,71.6965 472.533,74.8632 478.5,85C 484.599,88.5592 490.933,91.2259 497.5,93C 494.651,88.306 491.318,83.9727 487.5,80C 480.12,73.6184 472.453,67.6184 464.5,62C 452.594,60.2992 446.094,53.4659 445,41.5C 449.402,42.9156 453.902,44.0823 458.5,45C 463.497,48.1432 466.664,52.6432 468,58.5C 475.725,66.0616 483.892,73.0616 492.5,79.5C 492.833,79.1667 493.167,78.8333 493.5,78.5C 491.722,74.6096 490.222,70.6096 489,66.5C 482.849,62.0258 478.682,56.1925 476.5,49C 476.977,44.0234 477.81,39.1901 479,34.5C 482.367,38.2026 486.034,41.536 490,44.5C 492.591,51.6726 493.258,59.006 492,66.5C 494,71.8333 496,77.1667 498,82.5C 504.925,93.3485 509.925,105.015 513,117.5C 513.377,113.981 513.877,110.481 514.5,107C 511.923,101.061 511.09,94.8943 512,88.5C 514.667,84.5 517.333,80.5 520,76.5C 520.893,75.2888 521.726,75.2888 522.5,76.5C 526.039,83.245 526.873,90.245 525,97.5C 522.333,101.5 519.667,105.5 517,109.5C 515.083,120.747 514.083,132.08 514,143.5C 512.956,150.323 511.623,156.99 510,163.5C 511.763,160.98 513.763,158.647 516,156.5C 517.191,143.135 524.357,134.802 537.5,131.5C 538.496,140.002 535.829,147.169 529.5,153C 524.971,154.514 520.805,156.681 517,159.5C 514,163.167 511,166.833 508,170.5C 502.086,181.823 494.586,191.99 485.5,201C 488.179,200.782 490.845,200.115 493.5,199C 497.724,193.432 503.058,189.432 509.5,187C 514.825,187.325 520.159,187.992 525.5,189C 521.797,192.367 518.464,196.034 515.5,200C 511.536,201.843 507.37,202.677 503,202.5C 497.677,200.614 492.844,201.281 488.5,204.5C 485.432,205.022 482.432,205.855 479.5,207C 468.228,213.97 456.228,219.303 443.5,223C 445.744,223.906 448.077,224.406 450.5,224.5C 463.552,219.116 474.885,221.449 484.5,231.5C 477.318,235.952 469.651,237.119 461.5,235C 458.681,232.425 455.681,230.092 452.5,228C 436.24,223.821 419.906,223.488 403.5,227C 398.977,228.852 394.977,231.518 391.5,235C 383.333,237.209 375.666,236.043 368.5,231.5C 373.38,226.062 379.38,222.728 386.5,221.5C 391.387,222.264 396.22,223.264 401,224.5C 403.856,224.129 406.689,223.629 409.5,223C 404.5,221.333 399.5,219.667 394.5,218C 383.017,211.009 370.85,205.509 358,201.5C 350.985,203.154 344.151,202.654 337.5,200C 334.536,196.034 331.203,192.367 327.5,189C 333.452,187.67 339.452,187.337 345.5,188C 351.005,190.494 355.672,194.161 359.5,199C 362.155,200.115 364.821,200.782 367.5,201C 363.298,197.133 359.465,192.967 356,188.5C 350.84,178.346 344.507,169.012 337,160.5C 333.032,157.098 328.532,154.598 323.5,153C 317.39,147.025 314.723,139.858 315.5,131.5C 319.711,133.626 324.044,135.459 328.5,137C 329.622,139.124 331.122,140.957 333,142.5C 334.107,150.674 337.44,157.674 343,163.5C 341.174,157.038 339.841,150.372 339,143.5C 338.982,131.74 337.982,120.073 336,108.5C 333.578,104.656 330.911,100.99 328,97.5C 326.659,89.7017 327.826,82.3683 331.5,75.5C 335.207,79.0441 338.374,83.0441 341,87.5C 341.667,91.1667 341.667,94.8333 341,98.5C 338.125,104.684 337.792,111.017 340,117.5C 342.822,105.19 347.822,93.8569 355,83.5C 356.803,77.7578 358.803,72.0911 361,66.5C 360.737,61.1842 360.737,55.8509 361,50.5C 364.157,44.1643 368.657,38.831 374.5,34.5C 377.099,42.7879 376.599,50.7879 373,58.5C 365.152,63.5583 360.986,70.5583 360.5,79.5C 368.792,73.21 376.792,66.5434 384.5,59.5C 387.361,50.3008 393.361,44.6341 402.5,42.5 Z"/></g>
<g><path style="opacity:1" fill="#f7e1d2" d="M 402.5,56.5 C 420.859,96.8993 442.026,135.566 466,172.5C 467.789,174.229 469.956,174.896 472.5,174.5C 471.765,179.785 471.265,185.118 471,190.5C 467.727,196.712 464.727,203.046 462,209.5C 453.575,214.028 444.575,217.028 435,218.5C 432.76,217.964 430.927,216.797 429.5,215C 432.99,212.089 436.656,209.422 440.5,207C 452.349,206.65 460.015,200.817 463.5,189.5C 456.177,188.326 449.677,190.326 444,195.5C 440.481,203.517 434.648,209.183 426.5,212.5C 422.391,210.234 418.391,207.734 414.5,205C 410.019,193.311 401.686,188.145 389.5,189.5C 391.951,195.919 395.951,201.086 401.5,205C 410.07,205.56 417.404,208.894 423.5,215C 421.831,217.085 419.664,218.251 417,218.5C 407.686,217.177 399.019,214.177 391,209.5C 388,202.833 385,196.167 382,189.5C 383.337,177.508 378.837,168.508 368.5,162.5C 366.74,169.466 367.407,176.133 370.5,182.5C 378.717,188.932 383.883,197.265 386,207.5C 375.092,201.26 366.092,192.927 359,182.5C 359.242,174.17 359.908,165.836 361,157.5C 367.978,148.143 368.311,138.477 362,128.5C 359.667,132.167 357.333,135.833 355,139.5C 354.333,142.5 354.333,145.5 355,148.5C 356.893,152.09 357.727,155.923 357.5,160C 357.06,165.838 356.56,171.672 356,177.5C 349.566,166.531 345.733,154.697 344.5,142C 349.037,135.097 353.704,128.263 358.5,121.5C 369.993,116.822 374.993,108.488 373.5,96.5C 367.081,98.9509 361.914,102.951 358,108.5C 357.737,113.017 356.737,117.351 355,121.5C 351.667,126.167 348.333,130.833 345,135.5C 343.977,122.094 346.811,109.594 353.5,98C 359.287,95.6065 364.954,92.9398 370.5,90C 383.576,91.294 393.576,86.4607 400.5,75.5C 393.943,73.8587 387.61,74.3587 381.5,77C 374.693,85.4012 366.027,90.7345 355.5,93C 358.349,88.306 361.682,83.9727 365.5,80C 371.792,75.3767 377.792,70.3767 383.5,65C 387.692,62.1151 392.358,60.4484 397.5,60C 398.789,58.1978 400.456,57.0312 402.5,56.5 Z"/></g>
<g><path style="opacity:1" fill="#380f6f" d="M 617.5,81.5 C 623.704,81.3137 625.037,83.8137 621.5,89C 617.25,91.3742 613.084,93.8742 609,96.5C 608.333,112.167 608.333,127.833 609,143.5C 612.667,145.833 616.333,148.167 620,150.5C 629.25,145.126 638.416,139.626 647.5,134C 653.5,133.667 654.833,136 651.5,141C 640.957,147.104 630.29,152.937 619.5,158.5C 612.793,155.73 606.626,152.064 601,147.5C 600.333,129.167 600.333,110.833 601,92.5C 606.307,88.4378 611.807,84.7711 617.5,81.5 Z"/></g>
<g><path style="opacity:1" fill="#370e6e" d="M 708.5,81.5 C 713.675,80.5071 715.509,82.5071 714,87.5C 704.748,93.5443 695.248,99.2109 685.5,104.5C 684.52,107.086 684.187,109.753 684.5,112.5C 685.552,112.649 686.552,112.483 687.5,112C 704.878,101.312 722.544,91.1451 740.5,81.5C 747.66,83.9967 754.16,87.6633 760,92.5C 760.667,99.1667 760.667,105.833 760,112.5C 758.938,113.899 757.605,114.899 756,115.5C 751,112.833 746,110.167 741,107.5C 736.435,109.866 731.935,112.366 727.5,115C 722.712,114.902 721.379,112.569 723.5,108C 729.269,104.699 735.103,101.532 741,98.5C 744.91,100.082 748.576,102.082 752,104.5C 752.667,101.833 752.667,99.1667 752,96.5C 748.333,94.1667 744.667,91.8333 741,89.5C 722.079,101.045 702.913,112.212 683.5,123C 680.975,123.896 678.808,123.396 677,121.5C 676.333,114.833 676.333,108.167 677,101.5C 678.167,100.333 679.333,99.1667 680.5,98C 690.061,92.7257 699.394,87.2257 708.5,81.5 Z"/></g>
<g><path style="opacity:1" fill="#370e6e" d="M 812.5,170.5 C 813.828,150.329 813.828,129.996 812.5,109.5C 811.893,109.624 811.56,109.957 811.5,110.5C 810.193,111.153 808.86,111.82 807.5,112.5C 806.667,129.824 806.167,147.157 806,164.5C 800.923,168.624 795.423,172.124 789.5,175C 787.559,175.743 785.726,175.576 784,174.5C 783.333,149.833 783.333,125.167 784,100.5C 794.625,93.7724 805.458,87.439 816.5,81.5C 823.66,83.9967 830.16,87.6633 836,92.5C 836.984,122.919 836.651,153.253 835,183.5C 829.095,188.204 822.595,191.371 815.5,193C 812.833,190.667 812.833,188.333 815.5,186C 819.75,183.626 823.916,181.126 828,178.5C 828.667,151.167 828.667,123.833 828,96.5C 824.593,93.9643 820.926,91.9643 817,90.5C 808.404,94.6329 800.071,99.2996 792,104.5C 791.167,124.508 791.334,144.508 792.5,164.5C 794.332,163.752 795.999,162.752 797.5,161.5C 798.333,144.176 798.833,126.843 799,109.5C 804.516,105.074 810.516,101.407 817,98.5C 818.605,99.1007 819.938,100.101 821,101.5C 821.667,125.5 821.667,149.5 821,173.5C 810.144,180.93 798.811,187.596 787,193.5C 780.855,190.427 774.855,187.094 769,183.5C 768.333,152.833 768.333,122.167 769,91.5C 774.167,88.3333 779.333,85.1667 784.5,82C 789.667,80.5 791.5,82.3333 790,87.5C 785.503,90.7494 780.837,93.7494 776,96.5C 775.333,123.833 775.333,151.167 776,178.5C 779.424,180.918 783.09,182.918 787,184.5C 795.752,180.209 804.252,175.542 812.5,170.5 Z"/></g>
<g><path style="opacity:1" fill="#30076b" d="M 860.5,81.5 C 865.675,80.5071 867.509,82.5071 866,87.5C 861.503,90.7494 856.837,93.7494 852,96.5C 851.167,122.173 851.334,147.84 852.5,173.5C 854.5,172.5 856.5,171.5 858.5,170.5C 859.333,158.848 859.833,147.181 860,135.5C 862,132.833 864,132.833 866,135.5C 866.667,148.5 866.667,161.5 866,174.5C 860.423,178.621 854.423,181.955 848,184.5C 846.893,184.415 845.893,184.081 845,183.5C 844.333,152.833 844.333,122.167 845,91.5C 850.146,88.0179 855.313,84.6845 860.5,81.5 Z"/></g>
<g><path style="opacity:1" fill="#32096c" d="M 951.5,81.5 C 956.675,80.5071 958.509,82.5071 957,87.5C 947.748,93.5443 938.248,99.2109 928.5,104.5C 927.167,126.5 927.167,148.5 928.5,170.5C 932.129,172.3 935.629,174.3 939,176.5C 948.25,171.126 957.416,165.626 966.5,160C 969.901,158.865 971.901,160.032 972.5,163.5C 972.314,165.58 971.314,167.08 969.5,168C 959.416,174.041 949.082,179.541 938.5,184.5C 932.304,181.804 926.471,178.471 921,174.5C 920.333,149.833 920.333,125.167 921,100.5C 931.315,94.2669 941.481,87.9335 951.5,81.5 Z"/></g>
<g><path style="opacity:1" fill="#360d6e" d="M 78.5,81.5 C 83.0001,81.1638 84.8334,83.1638 84,87.5C 79.5825,90.2926 75.0825,92.9593 70.5,95.5C 69.3335,123.161 69.1668,150.827 70,178.5C 74.8365,181.251 79.5032,184.251 84,187.5C 85.1412,190.857 83.9746,192.857 80.5,193.5C 73.9651,190.468 67.7985,186.801 62,182.5C 61.3333,152.5 61.3333,122.5 62,92.5C 67.3075,88.4378 72.8075,84.7711 78.5,81.5 Z"/></g>
<g><path style="opacity:1" fill="#38106f" d="M 107.5,81.5 C 114.004,81.1377 115.671,83.6377 112.5,89C 102.5,94.6667 92.5,100.333 82.5,106C 76.5,106.333 75.1667,104 78.5,99C 88.5624,93.6436 98.2291,87.8103 107.5,81.5 Z"/></g>
<g><path style="opacity:1" fill="#3a1270" d="M 137.5,81.5 C 145.656,83.1384 152.823,86.8051 159,92.5C 159.667,125.5 159.667,158.5 159,191.5C 157.534,193.325 155.701,193.825 153.5,193C 147.915,189.625 142.415,186.125 137,182.5C 136.333,161.167 136.333,139.833 137,118.5C 139.075,116.352 141.408,116.018 144,117.5C 144.333,137.833 144.667,158.167 145,178.5C 146.87,180.219 149.037,181.219 151.5,181.5C 151.833,152.826 151.5,124.159 150.5,95.5C 147.167,93.5 143.833,91.5 140.5,89.5C 131.297,95.1993 121.964,100.699 112.5,106C 106.5,106.333 105.167,104 108.5,99C 118.562,93.6436 128.229,87.8103 137.5,81.5 Z"/></g>
<g><path style="opacity:1" fill="#350c6d" d="M 184.5,81.5 C 186.722,81.178 188.556,81.8446 190,83.5C 190.333,100.833 190.667,118.167 191,135.5C 195.837,138.251 200.503,141.251 205,144.5C 205.667,158.5 205.667,172.5 205,186.5C 202.821,190.352 200.488,190.352 198,186.5C 197.833,173.487 197.333,160.487 196.5,147.5C 191.533,145.107 187.033,142.107 183,138.5C 182.833,123.156 182.333,107.822 181.5,92.5C 179.999,93.7515 178.332,94.7515 176.5,95.5C 175.667,107.152 175.167,118.819 175,130.5C 172.667,133.167 170.333,133.167 168,130.5C 167.333,117.833 167.333,105.167 168,92.5C 173.307,88.4378 178.807,84.7711 184.5,81.5 Z"/></g>
<g><path style="opacity:1" fill="#370f6f" d="M 221.5,139.5 C 220.174,153.672 220.174,168.006 221.5,182.5C 222.107,182.376 222.44,182.043 222.5,181.5C 224.229,180.883 225.729,179.883 227,178.5C 227.333,167.167 227.667,155.833 228,144.5C 234.069,139.217 240.902,135.717 248.5,134C 251.167,136.333 251.167,138.667 248.5,141C 244.25,143.374 240.084,145.874 236,148.5C 235.667,159.833 235.333,171.167 235,182.5C 229.374,187.064 223.207,190.73 216.5,193.5C 214.971,193.471 213.804,192.804 213,191.5C 212.333,173.167 212.333,154.833 213,136.5C 213.93,134.448 215.43,132.948 217.5,132C 226.224,127.645 234.557,122.812 242.5,117.5C 243.493,109.35 243.826,101.017 243.5,92.5C 242.209,92.2627 241.209,92.596 240.5,93.5C 239.193,94.1534 237.86,94.8201 236.5,95.5C 235.67,101.472 235.17,107.472 235,113.5C 229.582,116.793 224.082,119.96 218.5,123C 213.917,123.934 212.417,122.1 214,117.5C 218.033,114.636 222.199,111.969 226.5,109.5C 227.33,103.862 227.83,98.1958 228,92.5C 233.74,87.7969 240.074,84.1303 247,81.5C 248.107,81.5852 249.107,81.9186 250,82.5C 250.667,95.5 250.667,108.5 250,121.5C 240.689,127.9 231.189,133.9 221.5,139.5 Z"/></g>
<g><path style="opacity:1" fill="#350d6e" d="M 659.5,103.5 C 659.56,104.043 659.893,104.376 660.5,104.5C 661.8,101.691 661.8,99.0241 660.5,96.5C 657.151,94.066 653.651,91.7327 650,89.5C 640.582,95.1263 631.082,100.626 621.5,106C 616.917,106.934 615.417,105.1 617,100.5C 627.467,93.5307 638.301,87.1974 649.5,81.5C 656.188,83.9265 662.355,87.2598 668,91.5C 668.5,99.4931 668.666,107.493 668.5,115.5C 666.801,115.66 665.134,115.494 663.5,115C 659.5,112.667 655.5,110.333 651.5,108C 650.5,107.333 649.5,107.333 648.5,108C 640.251,112.707 632.084,117.541 624,122.5C 623.667,128.167 623.333,133.833 623,139.5C 621.267,141.602 619.267,141.935 617,140.5C 615.409,133.608 615.076,126.608 616,119.5C 616.374,118.584 616.874,117.75 617.5,117C 628.105,110.447 638.939,104.28 650,98.5C 653.415,99.7897 656.582,101.456 659.5,103.5 Z"/></g>
<g><path style="opacity:1" fill="#360e6e" d="M 888.5,117.5 C 889.8,114.976 889.8,112.309 888.5,109.5C 887.893,109.624 887.56,109.957 887.5,110.5C 880.312,114.839 872.979,119.006 865.5,123C 863.559,123.743 861.726,123.576 860,122.5C 859.333,115.167 859.333,107.833 860,100.5C 870.467,93.5307 881.301,87.1974 892.5,81.5C 899.66,83.9967 906.16,87.6633 912,92.5C 912.667,104.833 912.667,117.167 912,129.5C 908.77,132.531 905.27,135.197 901.5,137.5C 905.707,139.341 909.207,142.008 912,145.5C 912.667,157.5 912.667,169.5 912,181.5C 910.419,184.553 908.086,185.22 905,183.5C 904.667,171.833 904.333,160.167 904,148.5C 899.916,145.874 895.75,143.374 891.5,141C 888.735,138.034 889.068,135.367 892.5,133C 896.577,131.213 900.41,129.046 904,126.5C 904.667,116.5 904.667,106.5 904,96.5C 900.333,94.1667 896.667,91.8333 893,89.5C 884.582,94.6261 876.082,99.6261 867.5,104.5C 866.52,107.086 866.187,109.753 866.5,112.5C 875.49,108.254 884.323,103.587 893,98.5C 894.261,98.7591 895.261,99.4258 896,100.5C 896.667,107.833 896.667,115.167 896,122.5C 890.1,126.114 884.1,129.447 878,132.5C 874.707,131.862 873.707,129.862 875,126.5C 879.479,123.353 883.979,120.353 888.5,117.5 Z"/></g>
<g><path style="opacity:1" fill="#360e6e" d="M 199.5,90.5 C 201.467,90.2606 203.301,90.5939 205,91.5C 205.667,104.5 205.667,117.5 205,130.5C 202.667,133.167 200.333,133.167 198,130.5C 197.333,117.833 197.333,105.167 198,92.5C 198.717,91.9558 199.217,91.2891 199.5,90.5 Z"/></g>
<g><path style="opacity:1" fill="#350c6e" d="M 966.5,90.5 C 974.656,92.1384 981.823,95.8051 988,101.5C 993.622,124.267 987.288,128.934 969,115.5C 964.916,118.126 960.75,120.626 956.5,123C 950.833,124.333 949.167,122.333 951.5,117C 956.5,114 961.5,111 966.5,108C 971.73,107.863 976.23,109.697 980,113.5C 980.821,110.446 980.655,107.446 979.5,104.5C 976.167,102.5 972.833,100.5 969.5,98.5C 960.423,103.12 951.59,108.12 943,113.5C 942.667,119.5 942.333,125.5 942,131.5C 940.274,132.576 938.441,132.743 936.5,132C 935.353,124.58 935.187,117.08 936,109.5C 945.979,102.766 956.146,96.4327 966.5,90.5 Z"/></g>
<g><path style="opacity:1" fill="#8d6d9b" d="M 240.5,93.5 C 241.209,92.596 242.209,92.2627 243.5,92.5C 243.826,101.017 243.493,109.35 242.5,117.5C 243.134,109.097 242.467,101.097 240.5,93.5 Z"/></g>
<g><path style="opacity:1" fill="#a385a8" d="M 660.5,96.5 C 661.8,99.0241 661.8,101.691 660.5,104.5C 659.893,104.376 659.56,104.043 659.5,103.5C 660.468,101.393 660.802,99.0593 660.5,96.5 Z"/></g>
<g><path style="opacity:1" fill="#350d6e" d="M 130.5,113.5 C 129.814,136.372 129.147,159.372 128.5,182.5C 123.403,186.225 118.07,189.725 112.5,193C 110.299,193.825 108.466,193.325 107,191.5C 106.333,167.5 106.333,143.5 107,119.5C 109.937,116.694 112.437,117.027 114.5,120.5C 114.167,141.177 114.5,161.844 115.5,182.5C 116.107,182.376 116.44,182.043 116.5,181.5C 118.229,180.883 119.729,179.883 121,178.5C 121.333,155.5 121.667,132.5 122,109.5C 126.916,105.957 132.083,102.79 137.5,100C 144.18,98.3302 145.846,100.33 142.5,106C 138.268,108.275 134.268,110.775 130.5,113.5 Z"/></g>
<g><path style="opacity:1" fill="#340a6d" d="M 93.5,107.5 C 95.7224,107.178 97.5557,107.845 99,109.5C 99.6667,133.833 99.6667,158.167 99,182.5C 96.6667,185.167 94.3333,185.167 92,182.5C 91.8331,161.159 91.3331,139.826 90.5,118.5C 88.5781,119.711 86.7448,121.044 85,122.5C 84.6667,139.5 84.3333,156.5 84,173.5C 81.6667,176.167 79.3333,176.167 77,173.5C 76.3333,155.167 76.3333,136.833 77,118.5C 82.3075,114.438 87.8075,110.771 93.5,107.5 Z"/></g>
<g><path style="opacity:1" fill="#ba9fb5" d="M 811.5,110.5 C 811.56,109.957 811.893,109.624 812.5,109.5C 813.828,129.996 813.828,150.329 812.5,170.5C 812.83,150.326 812.497,130.326 811.5,110.5 Z"/></g>
<g><path style="opacity:1" fill="#a98cac" d="M 887.5,110.5 C 887.56,109.957 887.893,109.624 888.5,109.5C 889.8,112.309 889.8,114.976 888.5,117.5C 888.802,114.941 888.468,112.607 887.5,110.5 Z"/></g>
<g><path style="opacity:1" fill="#c4a8b7" d="M 130.5,113.5 C 130.667,136.169 130.5,158.836 130,181.5C 129.617,182.056 129.117,182.389 128.5,182.5C 129.147,159.372 129.814,136.372 130.5,113.5 Z"/></g>
<g><path style="opacity:1" fill="#32086c" d="M 647.5,116.5 C 654.986,118.326 661.819,121.659 668,126.5C 668.667,145.5 668.667,164.5 668,183.5C 662.145,187.094 656.145,190.427 650,193.5C 646.621,192.13 645.788,189.797 647.5,186.5C 652.082,183.959 656.582,181.293 661,178.5C 661.833,162.49 661.666,146.49 660.5,130.5C 657.081,128.374 653.581,126.374 650,124.5C 645.182,127.812 640.016,130.478 634.5,132.5C 630.902,130.646 630.568,128.146 633.5,125C 638.397,122.392 643.063,119.559 647.5,116.5 Z"/></g>
<g><path style="opacity:1" fill="#2f056b" d="M 708.5,116.5 C 710.467,116.261 712.301,116.594 714,117.5C 714.667,136.5 714.667,155.5 714,174.5C 712,175.833 710,175.833 708,174.5C 707.18,155.093 707.347,135.76 708.5,116.5 Z"/></g>
<g><path style="opacity:1" fill="#3a1170" d="M 738.5,116.5 C 743.675,115.507 745.509,117.507 744,122.5C 739.667,125.167 735.333,127.833 731,130.5C 730.667,147.5 730.333,164.5 730,181.5C 728.695,184.306 726.528,185.14 723.5,184C 722.341,164.907 722.174,145.74 723,126.5C 728.146,123.018 733.313,119.685 738.5,116.5 Z"/></g>
<g><path style="opacity:1" fill="#d2b8be" d="M 114.5,120.5 C 115.167,140.833 115.833,161.167 116.5,181.5C 116.44,182.043 116.107,182.376 115.5,182.5C 114.5,161.844 114.167,141.177 114.5,120.5 Z"/></g>
<g><path style="opacity:1" fill="#32096c" d="M 692.5,181.5 C 692.833,166.152 692.499,150.819 691.5,135.5C 690.893,135.624 690.56,135.957 690.5,136.5C 687.161,138.177 683.827,139.844 680.5,141.5C 676.589,138.74 676.589,135.906 680.5,133C 685.167,130.333 689.833,127.667 694.5,125C 696.367,124.289 697.867,124.789 699,126.5C 699.333,143.833 699.667,161.167 700,178.5C 703.59,181.046 707.423,183.213 711.5,185C 715.027,187.303 715.36,189.97 712.5,193C 711.167,193.667 709.833,193.667 708.5,193C 703.666,189.748 698.666,186.748 693.5,184C 692.748,183.329 692.414,182.496 692.5,181.5 Z"/></g>
<g><path style="opacity:1" fill="#340b6d" d="M 967.5,124.5 C 971.976,124.822 973.476,127.156 972,131.5C 962.333,137.167 952.667,142.833 943,148.5C 942.667,154.167 942.333,159.833 942,165.5C 940,168.167 938,168.167 936,165.5C 935.333,158.167 935.333,150.833 936,143.5C 946.813,137.518 957.313,131.185 967.5,124.5 Z"/></g>
<g><path style="opacity:1" fill="#bca0b4" d="M 221.5,139.5 C 221.171,153.677 221.504,167.677 222.5,181.5C 222.44,182.043 222.107,182.376 221.5,182.5C 220.174,168.006 220.174,153.672 221.5,139.5 Z"/></g>
<g><path style="opacity:1" fill="#360d6e" d="M 875.5,142.5 C 883.489,144.412 890.656,148.078 897,153.5C 897.667,165.833 897.667,178.167 897,190.5C 894.966,193.859 892.632,194.192 890,191.5C 889.833,179.819 889.333,168.152 888.5,156.5C 886.5,155.5 884.5,154.5 882.5,153.5C 881.668,163.483 881.168,173.483 881,183.5C 875.582,186.793 870.082,189.96 864.5,193C 859.809,193.117 858.476,190.951 860.5,186.5C 865.082,183.959 869.582,181.293 874,178.5C 874.187,166.425 874.687,154.425 875.5,142.5 Z"/></g>
<g><path style="opacity:1" fill="#360e6e" d="M 966.5,142.5 C 974.489,144.412 981.656,148.078 988,153.5C 988.667,160.167 988.667,166.833 988,173.5C 977.751,180.376 967.251,186.876 956.5,193C 951.292,193.622 949.626,191.455 951.5,186.5C 960.833,181.167 970.167,175.833 979.5,170.5C 980.833,165.833 980.833,161.167 979.5,156.5C 975.871,154.7 972.371,152.7 969,150.5C 964.916,153.126 960.75,155.626 956.5,158C 951.333,159.5 949.5,157.667 951,152.5C 956.146,149.018 961.313,145.685 966.5,142.5 Z"/></g>
<g><path style="opacity:1" fill="#350d6e" d="M 648.5,150.5 C 650.39,150.297 651.89,150.963 653,152.5C 653.667,159.833 653.667,167.167 653,174.5C 642.31,181.346 631.31,187.679 620,193.5C 613.855,190.427 607.855,187.094 602,183.5C 600.409,176.608 600.076,169.608 601,162.5C 601.949,159.8 603.783,158.967 606.5,160C 611.01,162.516 615.51,165.016 620,167.5C 624.399,165.384 628.566,162.884 632.5,160C 637,159.167 638.833,161 638,165.5C 633.252,168.791 628.419,171.958 623.5,175C 618.145,175.848 613.478,174.348 609.5,170.5C 608.348,173.106 608.182,175.773 609,178.5C 612.424,180.918 616.09,182.918 620,184.5C 628.617,180.051 637.117,175.384 645.5,170.5C 646.33,164.528 646.83,158.528 647,152.5C 647.717,151.956 648.217,151.289 648.5,150.5 Z"/></g>
<g><path style="opacity:1" fill="#9c7da5" d="M 690.5,136.5 C 690.56,135.957 690.893,135.624 691.5,135.5C 692.499,150.819 692.833,166.152 692.5,181.5C 691.833,166.5 691.167,151.5 690.5,136.5 Z"/></g>
<g><path style="opacity:1" fill="#8a679a" d="M 424.5,217.5 C 425.978,217.238 427.311,217.571 428.5,218.5C 427.833,218.833 427.167,219.167 426.5,219.5C 425.287,219.253 424.62,218.586 424.5,217.5 Z"/></g>
</svg>
