<?xml version="1.0" encoding="UTF-8"?>
<!DOCTYPE svg PUBLIC "-//W3C//DTD SVG 1.1//EN" "http://www.w3.org/Graphics/SVG/1.1/DTD/svg11.dtd">
<svg xmlns="http://www.w3.org/2000/svg" version="1.1" width="993px" height="292px" style="shape-rendering:geometricPrecision; text-rendering:geometricPrecision; image-rendering:optimizeQuality; fill-rule:evenodd; clip-rule:evenodd" xmlns:xlink="http://www.w3.org/1999/xlink">
<g><path style="opacity:1" fill="#fdfdfd" d="M -0.5,-0.5 C 330.5,-0.5 661.5,-0.5 992.5,-0.5C 992.5,96.8333 992.5,194.167 992.5,291.5C 661.5,291.5 330.5,291.5 -0.5,291.5C -0.5,194.167 -0.5,96.8333 -0.5,-0.5 Z"/></g>
<g><path style="opacity:1" fill="#161616" d="M 306.5,43.5 C 316.228,44.0321 317.894,47.8655 311.5,55C 305.418,58.1227 299.585,61.6227 294,65.5C 293.333,88.8333 293.333,112.167 294,135.5C 299.087,138.917 304.421,141.917 310,144.5C 323.729,137.052 337.229,129.219 350.5,121C 356.834,119.671 359.668,122.171 359,128.5C 343.126,139.201 326.626,148.868 309.5,157.5C 301.73,153.573 294.063,149.406 286.5,145C 284.667,143.833 283.167,142.333 282,140.5C 281.333,113.833 281.333,87.1667 282,60.5C 282.374,59.5838 282.874,58.7504 283.5,58C 291.568,53.642 299.235,48.8086 306.5,43.5 Z"/></g>
<g><path style="opacity:1" fill="#141414" d="M 413.5,65.5 C 412.191,69.3507 412.191,73.3507 413.5,77.5C 414.107,77.3764 414.44,77.0431 414.5,76.5C 418.633,74.6 422.633,72.4333 426.5,70C 433,68.5 435.5,71 434,77.5C 433.167,79 432,80.1667 430.5,81C 424.003,84.4141 417.67,88.0808 411.5,92C 407.803,94.4468 404.636,93.9468 402,90.5C 401.333,80.1667 401.333,69.8333 402,59.5C 409.9,53.9382 418.066,48.7715 426.5,44C 431.2,42.8655 433.866,44.6988 434.5,49.5C 434.594,51.9116 433.594,53.745 431.5,55C 425.273,58.2743 419.273,61.7743 413.5,65.5 Z"/></g>
<g><path style="opacity:1" fill="#181818" d="M 733.5,43.5 C 737.355,42.8454 740.188,44.1788 742,47.5C 742.333,93.8333 742.667,140.167 743,186.5C 747.795,190.147 752.961,193.147 758.5,195.5C 765.118,192.524 771.451,189.024 777.5,185C 782.132,183.422 785.132,184.922 786.5,189.5C 786.152,191.697 785.152,193.53 783.5,195C 775.449,200.026 767.115,204.526 758.5,208.5C 750.551,204.859 742.884,200.692 735.5,196C 733.43,195.052 731.93,193.552 731,191.5C 730.667,147.5 730.333,103.5 730,59.5C 727.084,61.0406 724.251,62.7073 721.5,64.5C 720.667,102.829 720.167,141.162 720,179.5C 716.333,183.5 712.667,183.5 709,179.5C 708.333,139.833 708.333,100.167 709,60.5C 709.465,59.0692 710.299,57.9025 711.5,57C 719.269,53.0334 726.603,48.5334 733.5,43.5 Z"/></g>
<g><path style="opacity:1" fill="#121212" d="M 800.5,43.5 C 804.781,44.1361 808.781,45.6361 812.5,48C 818.59,51.4604 824.423,55.2938 830,59.5C 830.667,103.5 830.667,147.5 830,191.5C 828.833,194 827,195.833 824.5,197C 817.288,201.106 809.954,204.939 802.5,208.5C 800.399,208.368 798.899,207.368 798,205.5C 797.333,194.833 797.333,184.167 798,173.5C 801.696,170.575 805.029,170.908 808,174.5C 808.17,180.528 808.67,186.528 809.5,192.5C 812.533,190.302 815.7,188.302 819,186.5C 819.83,145.929 819.663,105.429 818.5,65C 815.368,63.3651 812.368,61.5318 809.5,59.5C 808.667,90.828 808.167,122.161 808,153.5C 806.833,155.333 805.333,156.833 803.5,158C 789.5,166 775.5,174 761.5,182C 756.542,183.69 753.542,182.023 752.5,177C 752.643,174.849 753.643,173.182 755.5,172C 769.167,164.167 782.833,156.333 796.5,148.5C 797.333,114.505 797.833,80.5049 798,46.5C 799.045,45.6266 799.878,44.6266 800.5,43.5 Z"/></g>
<g><path style="opacity:1" fill="#151515" d="M 351.5,43.5 C 353.199,43.3398 354.866,43.5065 356.5,44C 364.934,48.7715 373.1,53.9382 381,59.5C 381.811,70.8798 381.645,82.2131 380.5,93.5C 378.926,94.6309 377.259,94.7975 375.5,94C 368.127,89.1494 360.461,85.1494 352.5,82C 340.251,89.0406 328.084,96.2073 316,103.5C 315.667,111.833 315.333,120.167 315,128.5C 310.837,132.747 307.171,132.414 304,127.5C 303.333,117.833 303.333,108.167 304,98.5C 305.167,97.3333 306.333,96.1667 307.5,95C 321.833,86.6667 336.167,78.3333 350.5,70C 352.5,69.3333 354.5,69.3333 356.5,70C 360.963,72.3003 365.296,74.8003 369.5,77.5C 370.66,73.5411 370.827,69.5411 370,65.5C 364.813,62.2396 359.479,59.2396 354,56.5C 339.608,63.9456 325.441,71.7789 311.5,80C 306.968,80.8996 304.302,79.0663 303.5,74.5C 303.876,72.6171 304.876,71.1171 306.5,70C 321.892,61.6445 336.892,52.8111 351.5,43.5 Z"/></g>
<g><path style="opacity:1" fill="#171717" d="M 755.5,56.5 C 758.97,55.8748 761.804,56.8748 764,59.5C 764.333,86.8333 764.667,114.167 765,141.5C 769.848,138.137 775.014,135.47 780.5,133.5C 786.572,134.603 787.905,137.77 784.5,143C 775.859,148.236 767.026,153.069 758,157.5C 755.743,156.91 754.076,155.577 753,153.5C 752.333,122.167 752.333,90.8333 753,59.5C 754.045,58.6266 754.878,57.6266 755.5,56.5 Z"/></g>
<g><path style="opacity:1" fill="#181818" d="M 61.5,190.5 C 61.56,191.043 61.8933,191.376 62.5,191.5C 63.4742,189.257 63.8076,186.924 63.5,184.5C 65.0489,177.95 64.5489,171.617 62,165.5C 61.3333,162.167 61.3333,158.833 62,155.5C 64,152.167 66,148.833 68,145.5C 74.3146,154.858 73.9813,163.858 67,172.5C 66.0006,180.486 65.6672,188.486 66,196.5C 72.4548,206.64 80.9548,214.14 91.5,219C 88.6701,213.184 85.8368,207.351 83,201.5C 73.9551,195.918 70.7884,187.918 73.5,177.5C 78.6082,180.438 82.4415,184.438 85,189.5C 85.8765,200.945 89.3765,211.611 95.5,221.5C 102.897,225.859 110.897,228.526 119.5,229.5C 121.955,229.106 123.955,227.94 125.5,226C 119.862,220.692 113.196,217.692 105.5,217C 99.1676,213.43 95.501,208.264 94.5,201.5C 99.7538,202.368 104.754,203.868 109.5,206C 111.956,208.408 113.789,211.241 115,214.5C 119.048,218.216 123.382,221.55 128,224.5C 135.333,221.167 140.667,215.833 144,208.5C 149.08,202.996 155.246,200.996 162.5,202.5C 160.374,205.919 158.374,209.419 156.5,213C 152.282,216.814 147.282,218.481 141.5,218C 138.01,220.911 134.344,223.578 130.5,226C 132.346,227.999 134.679,228.832 137.5,228.5C 145.597,227.62 153.263,225.287 160.5,221.5C 166.594,212 169.761,201.667 170,190.5C 171,188.5 172,186.5 173,184.5C 176.023,182.302 178.856,179.969 181.5,177.5C 182.483,181.298 182.817,185.298 182.5,189.5C 181.034,194.804 177.867,198.804 173,201.5C 170.227,206.713 167.727,212.046 165.5,217.5C 175.709,213.501 183.875,206.501 190,196.5C 190.435,188.48 190.101,180.48 189,172.5C 182.072,163.886 181.738,154.886 188,145.5C 190,148.833 192,152.167 194,155.5C 194.667,158.833 194.667,162.167 194,165.5C 192.767,167.866 191.934,170.366 191.5,173C 191.979,178.922 192.812,184.755 194,190.5C 200.293,179.63 203.293,167.964 203,155.5C 199.667,150.833 196.333,146.167 193,141.5C 190.441,138.469 187.274,136.302 183.5,135C 177.891,129.977 175.891,123.81 177.5,116.5C 187.553,119.955 192.72,126.955 193,137.5C 196.176,141.863 199.343,146.196 202.5,150.5C 202.783,151.289 203.283,151.956 204,152.5C 204.808,148.973 204.641,145.64 203.5,142.5C 202.685,133.889 200.351,125.722 196.5,118C 190.046,115.273 183.712,112.273 177.5,109C 167.591,110.619 159.758,107.453 154,99.5C 153.535,98.0692 152.701,96.9025 151.5,96C 162.5,93.0092 170.834,96.3425 176.5,106C 181.954,108.227 187.287,110.727 192.5,113.5C 191.256,108.27 188.256,103.77 183.5,100C 177.208,95.3767 171.208,90.3767 165.5,85C 154.327,83.6647 147.327,77.498 144.5,66.5C 156.022,65.1518 163.522,70.1518 167,81.5C 174.098,88.969 181.931,95.1357 190.5,100C 189.005,96.1835 187.505,92.3502 186,88.5C 175.302,80.9066 172.136,70.9066 176.5,58.5C 183.006,62.8233 187.34,68.6566 189.5,76C 188.503,80.1378 188.336,84.3045 189,88.5C 190.803,94.2422 192.803,99.9089 195,105.5C 201.234,114.302 205.567,123.969 208,134.5C 210.007,127.516 209.507,120.683 206.5,114C 207.868,107.271 211.035,101.438 216,96.5C 222.395,107.8 221.062,118.133 212,127.5C 210.02,138.06 209.02,148.727 209,159.5C 208.2,165.635 207.2,171.635 206,177.5C 211.358,172.746 214.025,166.746 214,159.5C 219.002,153.754 225.169,150.254 232.5,149C 231.94,156.265 229.273,162.599 224.5,168C 220.013,169.603 215.846,171.77 212,174.5C 208.667,178.5 205.333,182.5 202,186.5C 197.43,196.739 190.93,205.572 182.5,213C 185.244,212.981 187.911,212.314 190.5,211C 197.796,200.581 207.463,197.581 219.5,202C 212.731,212.881 203.065,216.881 190.5,214C 180.385,216.725 171.051,221.059 162.5,227C 156.262,229.468 149.929,231.635 143.5,233.5C 146.304,234.305 149.138,234.972 152,235.5C 163.33,229.883 173.163,231.883 181.5,241.5C 170.727,247.959 161.06,246.793 152.5,238C 144.228,236.379 135.895,235.212 127.5,234.5C 119.391,234.907 111.391,236.074 103.5,238C 94.533,246.751 84.533,247.918 73.5,241.5C 78.0726,237.047 83.406,233.881 89.5,232C 94.3443,232.717 99.1776,233.884 104,235.5C 106.677,235.038 109.177,234.204 111.5,233C 100.552,230.797 90.552,226.464 81.5,220C 76.0116,218.393 70.6783,216.393 65.5,214C 62.1825,213.825 58.8491,213.992 55.5,214.5C 51.9332,214.589 48.5999,213.755 45.5,212C 42.3172,208.985 39.3172,205.818 36.5,202.5C 48.4162,197.751 58.0829,200.584 65.5,211C 68.4742,212.436 71.4742,213.436 74.5,214C 65.7726,206.269 58.9393,197.102 54,186.5C 50.3333,182.167 46.6667,177.833 43,173.5C 38.3797,171.69 34.0463,169.357 30,166.5C 26.2813,160.931 24.4479,154.931 24.5,148.5C 30.3718,150.35 35.5384,153.35 40,157.5C 42.0364,161.971 43.7031,166.638 45,171.5C 46.2899,173.792 47.9565,175.792 50,177.5C 47.5339,161.009 45.5339,144.342 44,127.5C 41.6667,124.167 39.3333,120.833 37,117.5C 34.7728,110.136 35.6062,103.136 39.5,96.5C 42.4915,99.6614 45.3248,102.995 48,106.5C 48.6583,108.8 49.1583,111.133 49.5,113.5C 48.2922,117.789 47.2922,122.122 46.5,126.5C 46.6816,129.226 47.1816,131.893 48,134.5C 51.0284,123.111 55.6951,112.444 62,102.5C 63.6667,97.8333 65.3333,93.1667 67,88.5C 67.6091,84.4763 67.4424,80.4763 66.5,76.5C 66.6922,74.4233 67.1922,72.4233 68,70.5C 71.3143,66.0187 75.1476,62.0187 79.5,58.5C 83.5504,70.7436 80.3837,80.7436 70,88.5C 68.0086,92.5989 66.8419,96.5989 66.5,100.5C 74.2782,94.523 81.7782,88.1897 89,81.5C 92.4191,70.4148 99.9191,65.2481 111.5,66C 109.605,71.7133 106.605,76.7133 102.5,81C 98.6386,82.7544 94.6386,84.0877 90.5,85C 85.1244,90.0443 79.4578,94.711 73.5,99C 68.343,102.883 64.843,107.716 63,113.5C 68.5457,110.977 74.0457,108.311 79.5,105.5C 85.3982,96.2268 93.7316,93.0602 104.5,96C 101.093,101.076 96.7601,105.076 91.5,108C 79.9919,108.409 69.3253,111.742 59.5,118C 53.8433,128.813 51.3433,140.313 52,152.5C 55.6667,147.5 59.3333,142.5 63,137.5C 63.2883,126.931 68.455,119.931 78.5,116.5C 79.8443,123.135 78.1777,128.968 73.5,134C 70.3681,135.635 67.3681,137.468 64.5,139.5C 60.8605,144.973 57.0271,150.306 53,155.5C 52.3351,168.007 55.1684,179.673 61.5,190.5 Z"/></g>
<g><path style="opacity:1" fill="#919191" d="M 413.5,65.5 C 413.185,69.3714 413.518,73.0381 414.5,76.5C 414.44,77.0431 414.107,77.3764 413.5,77.5C 412.191,73.3507 412.191,69.3507 413.5,65.5 Z"/></g>
<g><path style="opacity:1" fill="#131313" d="M 351.5,94.5 C 353.199,94.3398 354.866,94.5065 356.5,95C 364.934,99.7715 373.1,104.938 381,110.5C 381.667,137.833 381.667,165.167 381,192.5C 372.501,198.999 363.334,204.332 353.5,208.5C 348.922,207.132 347.422,204.132 349,199.5C 355.665,194.665 362.665,190.332 370,186.5C 370.667,163.167 370.667,139.833 370,116.5C 364.813,113.24 359.479,110.24 354,107.5C 347.606,110.613 341.439,114.113 335.5,118C 333.167,118.667 330.833,118.667 328.5,118C 325.657,114.381 325.99,111.048 329.5,108C 337.064,103.726 344.398,99.2255 351.5,94.5 Z"/></g>
<g><path style="opacity:1" fill="#191919" d="M 427.5,94.5 C 430.785,94.2693 433.285,95.6026 435,98.5C 435.667,120.833 435.667,143.167 435,165.5C 431.701,171.505 428.034,171.839 424,166.5C 423.333,143.5 423.333,120.5 424,97.5C 425.145,96.3636 426.312,95.3636 427.5,94.5 Z"/></g>
<g><path style="opacity:1" fill="#171717" d="M 480.5,94.5 C 486.303,94.81 488.47,97.81 487,103.5C 480.918,108.127 474.418,112.127 467.5,115.5C 466.167,139.5 466.167,163.5 467.5,187.5C 472.378,190.438 477.378,193.105 482.5,195.5C 488.937,192.239 495.271,188.739 501.5,185C 504.956,183.877 507.79,184.71 510,187.5C 510.167,192.333 510.333,197.167 510.5,202C 510.62,207.607 510.12,213.107 509,218.5C 500.973,224.93 492.14,229.93 482.5,233.5C 477.699,232.866 475.865,230.2 477,225.5C 483.665,220.665 490.665,216.332 498,212.5C 498.827,208.459 498.66,204.459 497.5,200.5C 493.167,203 488.833,205.5 484.5,208C 482.833,208.667 481.167,208.667 479.5,208C 472.427,203.268 465.094,198.935 457.5,195C 456.299,194.097 455.465,192.931 455,191.5C 454.333,164.833 454.333,138.167 455,111.5C 455.465,110.069 456.299,108.903 457.5,108C 465.336,103.637 473.003,99.1366 480.5,94.5 Z"/></g>
<g><path style="opacity:1" fill="#151515" d="M 520.5,225.5 C 521.83,187.331 521.83,148.998 520.5,110.5C 519.893,110.624 519.56,110.957 519.5,111.5C 509.517,117.139 499.517,122.805 489.5,128.5C 488.334,141.154 488.167,153.82 489,166.5C 491.916,164.959 494.749,163.293 497.5,161.5C 498.332,153.187 498.832,144.853 499,136.5C 502.667,132.5 506.333,132.5 510,136.5C 510.95,146.933 510.617,157.266 509,167.5C 501.418,172.709 493.584,177.543 485.5,182C 482.044,183.123 479.21,182.29 477,179.5C 476.333,160.833 476.333,142.167 477,123.5C 492.874,112.799 509.374,103.132 526.5,94.5C 528.774,95.2209 530.607,96.5543 532,98.5C 532.167,120.333 532.333,142.167 532.5,164C 532.657,186.586 532.157,209.086 531,231.5C 515.257,241.871 498.924,251.205 482,259.5C 472.904,255.284 464.238,250.284 456,244.5C 454.879,238.939 454.379,233.273 454.5,227.5C 454.667,222.5 454.833,217.5 455,212.5C 459.061,208.263 462.728,208.597 466,213.5C 466.168,221.853 466.668,230.187 467.5,238.5C 472.06,241.947 477.06,244.614 482.5,246.5C 495.16,239.51 507.827,232.51 520.5,225.5 Z"/></g>
<g><path style="opacity:1" fill="#181818" d="M 577.5,94.5 C 584.839,95.014 586.839,98.514 583.5,105C 576.753,108.455 570.253,112.289 564,116.5C 563.667,141.5 563.333,166.5 563,191.5C 561.309,195.213 558.475,196.379 554.5,195C 553.299,194.097 552.465,192.931 552,191.5C 551.333,164.833 551.333,138.167 552,111.5C 552.93,109.448 554.43,107.948 556.5,107C 563.894,103.311 570.894,99.1441 577.5,94.5 Z"/></g>
<g><path style="opacity:1" fill="#141414" d="M 629.5,125.5 C 629.167,147.843 629.5,170.177 630.5,192.5C 631.107,192.376 631.44,192.043 631.5,191.5C 634.553,190.223 637.386,188.556 640,186.5C 640.667,163.167 640.667,139.833 640,116.5C 634.813,113.24 629.479,110.24 624,107.5C 610.102,115.2 596.268,123.033 582.5,131C 577.608,132.69 574.608,131.023 573.5,126C 573.99,124.018 574.99,122.351 576.5,121C 591.663,112.586 606.663,103.919 621.5,95C 623.167,94.3333 624.833,94.3333 626.5,95C 634.934,99.7715 643.1,104.938 651,110.5C 651.667,137.833 651.667,165.167 651,192.5C 643.027,198.461 634.527,203.628 625.5,208C 623.191,208.756 621.191,208.256 619.5,206.5C 618.843,183.202 618.176,159.869 617.5,136.5C 607.003,142.248 596.67,148.248 586.5,154.5C 585.334,167.154 585.167,179.82 586,192.5C 589.333,190.5 592.667,188.5 596,186.5C 596.333,178.167 596.667,169.833 597,161.5C 600.202,157.614 603.535,157.614 607,161.5C 607.952,172.265 607.619,182.932 606,193.5C 598.246,198.963 590.079,203.797 581.5,208C 578.044,208.855 575.544,207.689 574,204.5C 573.026,185.743 573.36,167.076 575,148.5C 589.917,138.956 605.084,129.79 620.5,121C 625.157,119.422 628.157,120.922 629.5,125.5 Z"/></g>
<g><path style="opacity:1" fill="#121212" d="M 862.5,116.5 C 861.17,154.335 861.17,192.335 862.5,230.5C 863.107,230.376 863.44,230.043 863.5,229.5C 866.114,228.193 868.78,226.86 871.5,225.5C 872.333,208.51 872.833,191.51 873,174.5C 876.333,170.5 879.667,170.5 883,174.5C 883.667,193.167 883.667,211.833 883,230.5C 875.256,236.291 867.089,241.458 858.5,246C 855.653,246.944 853.153,246.444 851,244.5C 850.333,199.833 850.333,155.167 851,110.5C 858.744,104.709 866.911,99.5419 875.5,95C 883.362,94.8576 885.362,98.1909 881.5,105C 874.996,108.697 868.662,112.53 862.5,116.5 Z"/></g>
<g><path style="opacity:1" fill="#151515" d="M 919.5,94.5 C 921.989,94.2978 924.323,94.7978 926.5,96C 932.67,99.9192 939.003,103.586 945.5,107C 947.333,108.167 948.833,109.667 950,111.5C 950.667,129.5 950.667,147.5 950,165.5C 949.215,167.286 948.049,168.786 946.5,170C 932.918,177.707 919.418,185.54 906,193.5C 905.667,210.167 905.333,226.833 905,243.5C 897.925,248.957 890.425,253.79 882.5,258C 875.228,260.729 872.061,258.229 873,250.5C 879.587,246.122 886.42,242.122 893.5,238.5C 894.333,221.51 894.833,204.51 895,187.5C 896.167,186.333 897.333,185.167 898.5,184C 911.5,176.5 924.5,169 937.5,161.5C 938.666,146.511 938.833,131.511 938,116.5C 932.813,113.24 927.479,110.24 922,107.5C 909.186,114.574 896.519,121.907 884,129.5C 883.333,133.5 883.333,137.5 884,141.5C 895.915,134.793 907.748,127.96 919.5,121C 922.257,120.218 924.757,120.718 927,122.5C 927.667,133.167 927.667,143.833 927,154.5C 918.314,160.344 909.314,165.677 900,170.5C 895.481,169.132 893.815,166.132 895,161.5C 901.665,156.665 908.665,152.332 916,148.5C 916.827,144.459 916.66,140.459 915.5,136.5C 903.019,144.157 890.186,151.157 877,157.5C 875.395,156.899 874.062,155.899 873,154.5C 872.333,144.167 872.333,133.833 873,123.5C 873.833,122 875,120.833 876.5,120C 891.227,111.978 905.56,103.478 919.5,94.5 Z"/></g>
<g><path style="opacity:1" fill="#121212" d="M 412.5,111.5 C 412.167,138.508 412.5,165.508 413.5,192.5C 414.107,192.376 414.44,192.043 414.5,191.5C 419.28,188.726 424.28,186.393 429.5,184.5C 433.074,184.575 434.741,186.408 434.5,190C 434.441,191.436 434.108,192.769 433.5,194C 424.75,199.374 415.75,204.207 406.5,208.5C 404.617,208.124 403.117,207.124 402,205.5C 401.333,173.833 401.333,142.167 402,110.5C 405.947,106.324 409.447,106.657 412.5,111.5 Z"/></g>
<g><path style="opacity:1" fill="#525252" d="M 519.5,111.5 C 519.56,110.957 519.893,110.624 520.5,110.5C 521.83,148.998 521.83,187.331 520.5,225.5C 520.832,187.33 520.499,149.33 519.5,111.5 Z"/></g>
<g><path style="opacity:1" fill="#d5d5d5" d="M 862.5,116.5 C 862.168,154.337 862.502,192.004 863.5,229.5C 863.44,230.043 863.107,230.376 862.5,230.5C 861.17,192.335 861.17,154.335 862.5,116.5 Z"/></g>
<g><path style="opacity:1" fill="#d7d7d7" d="M 629.5,125.5 C 630.167,147.5 630.833,169.5 631.5,191.5C 631.44,192.043 631.107,192.376 630.5,192.5C 629.5,170.177 629.167,147.843 629.5,125.5 Z"/></g>
<g><path style="opacity:1" fill="#151515" d="M 351.5,145.5 C 354.505,145.253 357.005,146.253 359,148.5C 359.667,158.5 359.667,168.5 359,178.5C 358.215,180.286 357.049,181.786 355.5,183C 340.291,191.77 324.957,200.27 309.5,208.5C 300.461,203.896 291.627,198.896 283,193.5C 281.879,187.939 281.379,182.273 281.5,176.5C 281.667,171.5 281.833,166.5 282,161.5C 284.003,159.078 286.503,158.245 289.5,159C 296.33,162.581 302.997,166.414 309.5,170.5C 316.296,166.866 322.962,163.033 329.5,159C 337.301,158.807 339.301,162.14 335.5,169C 327.833,173.333 320.167,177.667 312.5,182C 310.5,182.667 308.5,182.667 306.5,182C 302.25,179.626 298.084,177.126 294,174.5C 293.333,178.5 293.333,182.5 294,186.5C 298.795,190.147 303.961,193.147 309.5,195.5C 322.54,188.562 335.373,181.229 348,173.5C 348.333,165.167 348.667,156.833 349,148.5C 350.045,147.627 350.878,146.627 351.5,145.5 Z"/></g>
<g><path style="opacity:1" fill="#999999" d="M 203.5,142.5 C 204.641,145.64 204.808,148.973 204,152.5C 203.283,151.956 202.783,151.289 202.5,150.5C 203.473,148.052 203.806,145.385 203.5,142.5 Z"/></g>
<g><path style="opacity:1" fill="#969696" d="M 412.5,111.5 C 413.167,138.167 413.833,164.833 414.5,191.5C 414.44,192.043 414.107,192.376 413.5,192.5C 412.5,165.508 412.167,138.508 412.5,111.5 Z"/></g>
<g><path style="opacity:1" fill="#959595" d="M 181.5,177.5 C 181.56,176.957 181.893,176.624 182.5,176.5C 183.811,180.984 183.811,185.317 182.5,189.5C 182.817,185.298 182.483,181.298 181.5,177.5 Z"/></g>
<g><path style="opacity:1" fill="#616161" d="M 63.5,184.5 C 63.8076,186.924 63.4742,189.257 62.5,191.5C 61.8933,191.376 61.56,191.043 61.5,190.5C 62.1667,188.5 62.8333,186.5 63.5,184.5 Z"/></g>
</svg>
