<?xml version="1.0" encoding="UTF-8"?>
<!DOCTYPE svg PUBLIC "-//W3C//DTD SVG 1.1//EN" "http://www.w3.org/Graphics/SVG/1.1/DTD/svg11.dtd">
<svg xmlns="http://www.w3.org/2000/svg" version="1.1" width="934px" height="292px" style="shape-rendering:geometricPrecision; text-rendering:geometricPrecision; image-rendering:optimizeQuality; fill-rule:evenodd; clip-rule:evenodd" xmlns:xlink="http://www.w3.org/1999/xlink">
<g><path style="opacity:1" fill="#fdfdfd" d="M -0.5,-0.5 C 310.833,-0.5 622.167,-0.5 933.5,-0.5C 933.5,96.8333 933.5,194.167 933.5,291.5C 622.167,291.5 310.833,291.5 -0.5,291.5C -0.5,194.167 -0.5,96.8333 -0.5,-0.5 Z"/></g>
<g><path style="opacity:1" fill="#161616" d="M 290.5,37.5 C 298.52,37.3918 300.854,40.8918 297.5,48C 290.962,52.0331 284.296,55.8665 277.5,59.5C 276.334,83.4931 276.167,107.493 277,131.5C 282.369,135.032 287.869,138.365 293.5,141.5C 307.37,133.134 321.37,124.967 335.5,117C 342.87,115.534 345.536,118.368 343.5,125.5C 329.833,133.667 316.167,141.833 302.5,150C 298.613,153.03 294.28,154.03 289.5,153C 283.33,149.081 276.997,145.414 270.5,142C 268,140.833 266.167,139 265,136.5C 264.333,109.5 264.333,82.5 265,55.5C 265.785,53.714 266.951,52.214 268.5,51C 276.064,46.7255 283.398,42.2255 290.5,37.5 Z"/></g>
<g><path style="opacity:1" fill="#141414" d="M 413.5,37.5 C 419.82,37.3196 422.32,40.3196 421,46.5C 414.335,51.3345 407.335,55.6679 400,59.5C 399.333,63.8333 399.333,68.1667 400,72.5C 405.116,69.037 410.449,66.037 416,63.5C 421.023,64.5422 422.69,67.5422 421,72.5C 413.1,78.0618 404.934,83.2285 396.5,88C 393.044,89.123 390.21,88.2896 388,85.5C 387.333,75.1667 387.333,64.8333 388,54.5C 388.93,52.4476 390.43,50.9476 392.5,50C 399.894,46.3107 406.894,42.1441 413.5,37.5 Z"/></g>
<g><path style="opacity:1" fill="#171717" d="M 728.5,37.5 C 734.873,37.3677 737.373,40.3677 736,46.5C 729.335,51.3345 722.335,55.6679 715,59.5C 714.333,101.167 714.333,142.833 715,184.5C 720.187,187.76 725.521,190.76 731,193.5C 738.283,189.108 745.783,185.108 753.5,181.5C 759.449,183.233 760.783,186.733 757.5,192C 748.847,197.242 740.013,202.075 731,206.5C 722.164,202.665 713.664,198.165 705.5,193C 704.299,192.097 703.465,190.931 703,189.5C 702.333,144.5 702.333,99.5 703,54.5C 703.465,53.0692 704.299,51.9025 705.5,51C 713.336,46.6366 721.003,42.1366 728.5,37.5 Z"/></g>
<g><path style="opacity:1" fill="#141414" d="M 336.5,37.5 C 338.199,37.3398 339.866,37.5065 341.5,38C 347.67,41.9192 354.003,45.5859 360.5,49C 362.96,50.4578 365.127,52.2911 367,54.5C 367.667,65.5 367.667,76.5 367,87.5C 365.192,89.3959 363.025,89.8959 360.5,89C 353.127,84.1494 345.461,80.1494 337.5,77C 325.167,84.1667 312.833,91.3333 300.5,98.5C 299.668,106.813 299.168,115.147 299,123.5C 295.829,128.414 292.163,128.747 288,124.5C 287.333,114.167 287.333,103.833 288,93.5C 303.253,83.1196 319.087,73.6196 335.5,65C 337.833,64.3333 340.167,64.3333 342.5,65C 346.75,67.3742 350.916,69.8742 355,72.5C 355.828,68.1287 355.661,63.7953 354.5,59.5C 349.235,56.6194 344.069,53.6194 339,50.5C 324.435,58.533 309.935,66.6997 295.5,75C 290.842,76.1868 288.175,74.3535 287.5,69.5C 287.76,67.8129 288.427,66.3129 289.5,65C 305.336,55.9699 321.003,46.8032 336.5,37.5 Z"/></g>
<g><path style="opacity:1" fill="#131313" d="M 751.5,50.5 C 754.961,50.1459 757.461,51.4792 759,54.5C 759.667,90.8333 759.667,127.167 759,163.5C 755.234,168.796 751.567,168.796 748,163.5C 747.333,127.167 747.333,90.8333 748,54.5C 748.69,52.6498 749.856,51.3164 751.5,50.5 Z"/></g>
<g><path style="opacity:1" fill="#191919" d="M 145.5,98.5 C 148.962,97.5184 152.629,97.185 156.5,97.5C 158.593,98.0447 160.593,98.878 162.5,100C 167.804,107.148 174.804,111.482 183.5,113C 182.126,110.417 180.626,107.917 179,105.5C 171.888,100.022 165.054,94.1888 158.5,88C 147.645,86.98 140.979,81.1466 138.5,70.5C 149.142,69.2734 155.975,73.94 159,84.5C 165.926,90.0474 172.759,95.7141 179.5,101.5C 179.132,97.5299 177.965,93.5299 176,89.5C 166.772,83.1143 163.939,74.4476 167.5,63.5C 178.222,69.4827 182.055,78.4827 179,90.5C 181.995,100.497 186.328,109.83 192,118.5C 193.994,123.465 195.661,128.465 197,133.5C 197.392,130.812 197.892,128.145 198.5,125.5C 193.075,114.956 194.908,105.956 204,98.5C 209.946,108.22 208.946,117.22 201,125.5C 199.038,135.727 198.038,146.06 198,156.5C 196.818,162.207 195.818,167.874 195,173.5C 199.595,168.391 202.262,162.391 203,155.5C 206.721,150.754 211.555,147.754 217.5,146.5C 218.171,151.323 217.338,155.99 215,160.5C 210.31,164.342 205.31,167.675 200,170.5C 193.013,178.47 187.013,187.136 182,196.5C 179.158,200.043 175.991,203.21 172.5,206C 179.237,205.453 184.237,202.12 187.5,196C 194.009,193.596 200.676,193.429 207.5,195.5C 200.75,205.711 191.417,209.544 179.5,207C 170.086,209.467 161.42,213.467 153.5,219C 148.124,220.736 142.79,222.57 137.5,224.5C 139.167,224.833 140.833,225.167 142.5,225.5C 154.039,221.183 164.039,223.349 172.5,232C 162.594,237.644 153.594,236.644 145.5,229C 131.575,224.867 117.575,224.533 103.5,228C 99.0521,230.784 94.3855,233.117 89.5,235C 83.54,235.761 77.8734,234.761 72.5,232C 76.1895,228.825 80.1895,226.158 84.5,224C 90.4213,223.473 96.2546,223.973 102,225.5C 104.375,225.596 106.541,225.096 108.5,224C 103.744,222.978 99.077,221.644 94.5,220C 85.6777,214.589 76.3443,210.256 66.5,207C 54.5507,209.525 45.2174,205.692 38.5,195.5C 49.658,191.41 58.658,194.243 65.5,204C 68.0893,205.314 70.7559,205.981 73.5,206C 65.2913,199.435 59.1246,191.268 55,181.5C 51.6667,177.5 48.3333,173.5 45,169.5C 39.0813,167.433 34.0813,164.099 30,159.5C 28.5639,154.868 27.5639,150.201 27,145.5C 32.6306,147.481 37.6306,150.481 42,154.5C 43.9374,158.646 45.2707,162.979 46,167.5C 48.0435,169.208 49.7101,171.208 51,173.5C 48.5103,157.652 46.5103,141.652 45,125.5C 37.0849,117.348 35.9183,108.348 41.5,98.5C 45.3017,101.804 48.1351,105.804 50,110.5C 50.0304,115.763 49.1971,120.93 47.5,126C 47.7618,128.547 48.2618,131.047 49,133.5C 50.1312,129.106 51.4646,124.773 53,120.5C 58.7437,111.012 63.4104,101.012 67,90.5C 64.1173,78.9766 67.6173,69.9766 77.5,63.5C 80.1209,70.1233 79.9543,76.79 77,83.5C 70.0597,87.7389 66.5597,93.7389 66.5,101.5C 73.2411,95.7141 80.0744,90.0474 87,84.5C 89.9655,74.2015 96.7988,69.3682 107.5,70C 105.458,80.5133 99.1249,86.1799 88.5,87C 82.7921,92.3767 76.7921,97.3767 70.5,102C 67.4694,105.23 64.8028,108.73 62.5,112.5C 62.8333,112.833 63.1667,113.167 63.5,113.5C 68.0466,111.06 72.7133,108.893 77.5,107C 82.7932,98.194 90.4598,95.194 100.5,98C 95.2728,107.28 87.2728,111.28 76.5,110C 70.4676,112.433 64.6343,115.266 59,118.5C 54.5564,128.384 52.5564,138.717 53,149.5C 56.3333,144.833 59.6667,140.167 63,135.5C 63.0213,125.806 67.688,119.472 77,116.5C 78.65,122.926 77.15,128.426 72.5,133C 69.6714,134.247 67.0048,135.747 64.5,137.5C 60.8605,142.973 57.0271,148.306 53,153.5C 53.5583,164.512 56.5583,174.845 62,184.5C 63.045,180.755 63.545,176.921 63.5,173C 62.5542,166.179 62.0542,159.345 62,152.5C 63.7519,149.328 65.7519,146.328 68,143.5C 72.922,151.872 72.5886,159.872 67,167.5C 65.7352,175.469 65.4019,183.469 66,191.5C 71.5399,198.707 78.0399,204.874 85.5,210C 86.7589,210.982 88.0922,211.315 89.5,211C 86.5994,206.032 84.0994,200.865 82,195.5C 73.194,190.207 70.194,182.54 73,172.5C 82.3179,177.803 86.3179,185.803 85,196.5C 87.4329,202.532 90.2662,208.366 93.5,214C 100.158,217.248 107.158,219.415 114.5,220.5C 116.791,220.378 118.791,219.545 120.5,218C 115.457,212.294 109.124,209.294 101.5,209C 96.8672,205.916 93.5339,201.75 91.5,196.5C 101.473,194.909 108.306,198.909 112,208.5C 115.667,211.167 119.333,213.833 123,216.5C 126.222,213.612 129.722,211.112 133.5,209C 136.947,198.881 143.947,194.547 154.5,196C 152.596,201.494 149.263,205.827 144.5,209C 136.895,209.262 130.561,212.262 125.5,218C 126.774,219.221 128.274,220.054 130,220.5C 137.979,219.09 145.645,216.757 153,213.5C 155.474,207.748 158.14,202.081 161,196.5C 159.701,185.765 163.701,177.765 173,172.5C 175.806,182.54 172.806,190.207 164,195.5C 161.689,200.771 159.189,205.937 156.5,211C 166.062,206.421 173.895,199.587 180,190.5C 180.706,182.792 180.372,175.125 179,167.5C 173.349,159.845 173.016,151.845 178,143.5C 185.251,150.909 186.418,159.243 181.5,168.5C 182.078,174.169 182.745,179.836 183.5,185.5C 189.632,175.304 192.465,164.304 192,152.5C 189,148.167 186,143.833 183,139.5C 180.441,136.469 177.274,134.302 173.5,133C 169.243,128.578 167.243,123.245 167.5,117C 177.438,118.987 182.605,125.154 183,135.5C 186.333,140.167 189.667,144.833 193,149.5C 193.643,138.075 191.143,127.408 185.5,117.5C 180.046,115.273 174.713,112.773 169.5,110C 158.933,111.214 150.933,107.381 145.5,98.5 Z"/></g>
<g><path style="opacity:1" fill="#171717" d="M 728.5,63.5 C 731.505,63.253 734.005,64.253 736,66.5C 736.667,103.5 736.667,140.5 736,177.5C 731.974,181.631 728.307,181.298 725,176.5C 724.333,140.167 724.333,103.833 725,67.5C 726.376,66.2949 727.542,64.9616 728.5,63.5 Z"/></g>
<g><path style="opacity:1" fill="#141414" d="M 335.5,90.5 C 338.649,90.2114 341.649,90.7114 344.5,92C 351.167,96 357.833,100 364.5,104C 365.701,104.903 366.535,106.069 367,107.5C 367.667,134.5 367.667,161.5 367,188.5C 365.5,191.333 363.333,193.5 360.5,195C 353.353,198.989 346.186,202.822 339,206.5C 331.6,204.067 330.766,200.234 336.5,195C 342.664,191.752 348.664,188.252 354.5,184.5C 355.833,160.167 355.833,135.833 354.5,111.5C 349.167,108.5 343.833,105.5 338.5,102.5C 332.167,106.333 325.833,110.167 319.5,114C 311.056,115.13 308.722,111.797 312.5,104C 320.336,99.6366 328.003,95.1366 335.5,90.5 Z"/></g>
<g><path style="opacity:1" fill="#121212" d="M 412.5,90.5 C 415.685,90.0196 418.519,90.6863 421,92.5C 421.667,116.5 421.667,140.5 421,164.5C 417.582,168.367 414.249,168.367 411,164.5C 410.333,140.5 410.333,116.5 411,92.5C 411.717,91.9558 412.217,91.2891 412.5,90.5 Z"/></g>
<g><path style="opacity:1" fill="#151515" d="M 466.5,90.5 C 471.445,89.3106 474.778,90.9773 476.5,95.5C 476.152,97.6967 475.152,99.53 473.5,101C 466.753,104.455 460.253,108.289 454,112.5C 453.167,136.507 453.334,160.507 454.5,184.5C 459.833,187.5 465.167,190.5 470.5,193.5C 477.33,189.919 483.997,186.086 490.5,182C 493.636,180.959 496.136,181.793 498,184.5C 498.667,195.167 498.667,205.833 498,216.5C 489.484,223.006 480.318,228.339 470.5,232.5C 464.585,230.827 463.251,227.327 466.5,222C 473.33,218.419 479.997,214.586 486.5,210.5C 487.661,206.205 487.828,201.871 487,197.5C 482.416,200.208 477.916,203.042 473.5,206C 471.5,206.667 469.5,206.667 467.5,206C 460.167,201.667 452.833,197.333 445.5,193C 443.951,191.786 442.785,190.286 442,188.5C 441.333,161.5 441.333,134.5 442,107.5C 442.956,106.421 443.789,105.255 444.5,104C 452.064,99.7255 459.398,95.2255 466.5,90.5 Z"/></g>
<g><path style="opacity:1" fill="#161616" d="M 512.5,90.5 C 516.013,89.8757 518.847,90.8757 521,93.5C 521.667,138.5 521.667,183.5 521,228.5C 520.535,229.931 519.701,231.097 518.5,232C 504.003,240.081 489.669,248.414 475.5,257C 472.97,258.422 470.303,258.755 467.5,258C 459.334,253.418 451.334,248.585 443.5,243.5C 443,242.5 442.5,241.5 442,240.5C 441.333,230.833 441.333,221.167 442,211.5C 445.272,206.597 448.939,206.263 453,210.5C 453.333,219.167 453.667,227.833 454,236.5C 459.297,239.898 464.797,242.898 470.5,245.5C 483.143,238.539 495.81,231.539 508.5,224.5C 509.667,185.171 509.833,145.838 509,106.5C 498.168,112.581 487.502,118.915 477,125.5C 476.167,138.18 476.334,150.846 477.5,163.5C 480.339,161.58 483.339,159.913 486.5,158.5C 487.332,149.852 487.832,141.186 488,132.5C 490.635,129.175 493.802,128.675 497.5,131C 498.126,131.75 498.626,132.584 499,133.5C 499.667,143.167 499.667,152.833 499,162.5C 497.833,165 496,166.833 493.5,168C 486.147,172.033 478.813,176.033 471.5,180C 468.196,181.042 466.029,179.875 465,176.5C 464.333,157.833 464.333,139.167 465,120.5C 466.167,118 468,116.167 470.5,115C 484.727,107.059 498.727,98.8924 512.5,90.5 Z"/></g>
<g><path style="opacity:1" fill="#131313" d="M 566.5,90.5 C 573.493,88.9959 576.327,91.6625 575,98.5C 568.59,103.392 561.757,107.725 554.5,111.5C 553.667,137.494 553.167,163.494 553,189.5C 551.179,192.991 548.346,194.157 544.5,193C 543.299,192.097 542.465,190.931 542,189.5C 541.333,162.167 541.333,134.833 542,107.5C 542.465,106.069 543.299,104.903 544.5,104C 552.064,99.7255 559.398,95.2255 566.5,90.5 Z"/></g>
<g><path style="opacity:1" fill="#151515" d="M 576.5,151.5 C 575.175,164.339 575.175,177.339 576.5,190.5C 577.107,190.376 577.44,190.043 577.5,189.5C 580.223,187.719 583.057,186.052 586,184.5C 586.055,175.399 586.722,166.399 588,157.5C 591.607,154.731 594.94,155.064 598,158.5C 598.954,169.598 598.62,180.598 597,191.5C 589.583,196.126 582.083,200.626 574.5,205C 570.803,207.447 567.636,206.947 565,203.5C 564.333,184.167 564.333,164.833 565,145.5C 580.571,135.602 596.405,126.102 612.5,117C 615.927,115.834 618.593,116.668 620.5,119.5C 620.167,143.176 620.5,166.843 621.5,190.5C 622.107,190.376 622.44,190.043 622.5,189.5C 625.634,188.099 628.634,186.432 631.5,184.5C 632.666,160.507 632.833,136.507 632,112.5C 626.703,109.102 621.203,106.102 615.5,103.5C 601.376,111.063 587.376,118.897 573.5,127C 565.056,128.13 562.722,124.797 566.5,117C 581.663,108.586 596.663,99.9193 611.5,91C 613.833,90.3333 616.167,90.3333 618.5,91C 626.167,95.3333 633.833,99.6667 641.5,104C 642.211,105.255 643.044,106.421 644,107.5C 644.667,134.5 644.667,161.5 644,188.5C 643.215,190.286 642.049,191.786 640.5,193C 632.833,197.333 625.167,201.667 617.5,206C 614.975,206.896 612.808,206.396 611,204.5C 609.686,180.588 609.019,156.588 609,132.5C 598.057,138.719 587.224,145.052 576.5,151.5 Z"/></g>
<g><path style="opacity:1" fill="#161616" d="M 804.5,90.5 C 811.493,88.9959 814.327,91.6625 813,98.5C 806.42,103.208 799.587,107.541 792.5,111.5C 791.667,137.494 791.167,163.494 791,189.5C 787.607,194.109 783.941,194.443 780,190.5C 779.333,162.5 779.333,134.5 780,106.5C 781.167,105.333 782.333,104.167 783.5,103C 790.894,99.3107 797.894,95.1441 804.5,90.5 Z"/></g>
<g><path style="opacity:1" fill="#151515" d="M 847.5,201.5 C 847.833,178.49 847.5,155.49 846.5,132.5C 845.893,132.624 845.56,132.957 845.5,133.5C 834.946,139.362 824.446,145.362 814,151.5C 813.333,164.5 813.333,177.5 814,190.5C 817.082,188.375 820.249,186.375 823.5,184.5C 824.332,176.187 824.832,167.853 825,159.5C 828.667,154.167 832.333,154.167 836,159.5C 836.928,170.24 836.595,180.907 835,191.5C 826.165,197.166 816.998,202.166 807.5,206.5C 805.272,205.781 803.439,204.448 802,202.5C 801.333,183.833 801.333,165.167 802,146.5C 803.5,145 805,143.5 806.5,142C 821.167,133.667 835.833,125.333 850.5,117C 854.506,115.579 857.172,116.746 858.5,120.5C 858.167,143.843 858.5,167.176 859.5,190.5C 860.107,190.376 860.44,190.043 860.5,189.5C 863.223,187.719 866.057,186.052 869,184.5C 869.833,160.16 869.666,135.826 868.5,111.5C 864.167,109 859.833,106.5 855.5,104C 853.833,103.333 852.167,103.333 850.5,104C 836.786,112.771 822.619,120.604 808,127.5C 805.966,127.646 804.299,126.98 803,125.5C 802.022,122.331 802.522,119.497 804.5,117C 818.997,108.919 833.331,100.586 847.5,92C 851.997,89.8791 856.33,90.2125 860.5,93C 867.762,96.8787 874.595,101.379 881,106.5C 881.667,134.167 881.667,161.833 881,189.5C 880.535,190.931 879.701,192.097 878.5,193C 871.337,196.747 864.337,200.747 857.5,205C 852.632,207.791 849.299,206.625 847.5,201.5 Z"/></g>
<g><path style="opacity:1" fill="#868686" d="M 156.5,97.5 C 152.629,97.185 148.962,97.5184 145.5,98.5C 144.957,98.44 144.624,98.1067 144.5,97.5C 148.649,96.1905 152.649,96.1905 156.5,97.5 Z"/></g>
<g><path style="opacity:1" fill="#121212" d="M 398.5,106.5 C 398.167,134.508 398.5,162.508 399.5,190.5C 400.107,190.376 400.44,190.043 400.5,189.5C 405.464,186.435 410.631,183.768 416,181.5C 419.399,182.065 421.232,184.065 421.5,187.5C 421.594,189.912 420.594,191.745 418.5,193C 411.337,196.747 404.337,200.747 397.5,205C 393.296,207.659 390.129,206.825 388,202.5C 387.333,170.5 387.333,138.5 388,106.5C 390.167,103.713 393.001,102.88 396.5,104C 397.381,104.708 398.047,105.542 398.5,106.5 Z"/></g>
<g><path style="opacity:1" fill="#3e3e3e" d="M 398.5,106.5 C 399.167,134.167 399.833,161.833 400.5,189.5C 400.44,190.043 400.107,190.376 399.5,190.5C 398.5,162.508 398.167,134.508 398.5,106.5 Z"/></g>
<g><path style="opacity:1" fill="#2f2f2f" d="M 620.5,119.5 C 621.167,142.833 621.833,166.167 622.5,189.5C 622.44,190.043 622.107,190.376 621.5,190.5C 620.5,166.843 620.167,143.176 620.5,119.5 Z"/></g>
<g><path style="opacity:1" fill="#6c6c6c" d="M 858.5,120.5 C 859.167,143.5 859.833,166.5 860.5,189.5C 860.44,190.043 860.107,190.376 859.5,190.5C 858.5,167.176 858.167,143.843 858.5,120.5 Z"/></g>
<g><path style="opacity:1" fill="#161616" d="M 335.5,142.5 C 338.97,141.875 341.804,142.875 344,145.5C 344.667,155.833 344.667,166.167 344,176.5C 343.626,177.416 343.126,178.25 342.5,179C 326.405,188.711 310.071,197.878 293.5,206.5C 283.682,202.339 274.516,197.006 266,190.5C 264.383,180.266 264.05,169.933 265,159.5C 266.583,156.291 269.083,155.124 272.5,156C 279.5,159.833 286.5,163.667 293.5,167.5C 300.296,163.866 306.962,160.033 313.5,156C 319.829,155.332 322.329,158.166 321,164.5C 312.75,170.043 304.25,175.21 295.5,180C 293.833,180.667 292.167,180.667 290.5,180C 286.084,177.042 281.584,174.208 277,171.5C 276.172,175.871 276.339,180.205 277.5,184.5C 282.833,187.5 288.167,190.5 293.5,193.5C 306.462,186.367 319.295,179.033 332,171.5C 332.333,163.167 332.667,154.833 333,146.5C 333.662,145.016 334.496,143.683 335.5,142.5 Z"/></g>
<g><path style="opacity:1" fill="#6e6e6e" d="M 576.5,151.5 C 576.171,164.344 576.505,177.011 577.5,189.5C 577.44,190.043 577.107,190.376 576.5,190.5C 575.175,177.339 575.175,164.339 576.5,151.5 Z"/></g>
<g><path style="opacity:1" fill="#bfbfbf" d="M 845.5,133.5 C 845.56,132.957 845.893,132.624 846.5,132.5C 847.5,155.49 847.833,178.49 847.5,201.5C 846.833,178.833 846.167,156.167 845.5,133.5 Z"/></g>
<g><path style="opacity:1" fill="#8b8b8b" d="M 121.5,220.5 C 122.386,219.224 123.386,219.224 124.5,220.5C 123.575,221.562 122.575,221.562 121.5,220.5 Z"/></g>
</svg>
